<svg width="100" height="26" viewBox="0 0 100 26" fill="none" xmlns="http://www.w3.org/2000/svg">
<path fill-rule="evenodd" clip-rule="evenodd" d="M40.7777 16.9796V14.5968C39.7467 14.7686 39.1739 14.9176 38.6012 15.1582C37.7994 15.4675 37.5703 15.8454 37.5703 16.8306C37.5703 17.724 37.9139 18.0563 38.6012 18.0563C39.2886 18.0563 40.0903 17.6667 40.7777 16.9796ZM36.0812 11.6072L35.7376 11.7447L34.9357 9.54526C35.9667 9.0069 36.4248 8.84659 37.3412 8.62901C38.2577 8.41126 39.1739 8.29673 40.2049 8.29673C43.1832 8.29673 44.2142 9.32769 44.2142 12.3746V18.2281C44.2142 18.8465 44.5578 19.1558 45.245 19.1558H45.3595V20.3816H41.9232C41.2358 20.3816 40.8922 20.0265 40.8922 19.2818V18.9153C40.2049 19.5454 39.9758 19.6829 39.4031 19.9462C38.8303 20.3128 38.0286 20.4961 37.2267 20.4961C35.1648 20.4961 34.2484 19.4194 34.2484 17.1627C34.2484 15.3643 34.9357 14.2188 36.4248 13.6231C36.8831 13.4285 37.3412 13.2796 37.7994 13.165C38.7158 12.9703 39.1739 12.8787 40.7777 12.6152V12.3173C40.7777 11.2636 40.4339 10.8855 39.2886 10.8855C39.0594 10.8855 38.6012 10.9313 38.2577 10.9771C37.5703 11.1031 36.9976 11.2406 36.0812 11.6072ZM32.4185 5.86753C32.4185 4.81359 31.6166 4.19498 30.3566 4.19498C28.982 4.19498 28.2948 4.81359 28.2948 5.86753C28.2948 6.94426 28.982 7.57419 30.3566 7.57419C31.6166 7.57419 32.4185 6.94426 32.4185 5.86753ZM32.304 20.3807V9.63611C32.304 8.89148 31.8458 8.45615 31.1585 8.45615H27.6075V9.75064H27.8365C28.5239 9.75064 28.753 10.037 28.753 10.6899V20.3807H32.304ZM9.04922 13.9701H5.38369L7.33107 7.6357L9.04922 13.9701ZM3.66554 20.3734L4.81103 16.5131H9.50735L10.6528 20.3734H14.5476L10.4238 5.72278C10.1947 4.76057 9.73659 4.45127 8.70563 4.45127H2.97818V5.76856H3.43647C4.12367 5.76856 4.46726 5.98614 4.46726 6.51319C4.46726 6.8453 4.46726 7.06304 4.12366 7.85328L0 20.3734H3.66554ZM19.4723 20.3734V5.61973C19.4723 4.85213 19.014 4.45127 18.2123 4.45127H14.6613V5.76856H14.8904C15.5776 5.76856 15.9213 6.05489 15.9213 6.6735V20.3734H19.4723ZM25.8874 5.61973V20.3734H22.3364V6.6735C22.3364 6.05489 21.9928 5.76856 21.3055 5.76856H21.0764V4.45127H24.6274C25.4291 4.45127 25.8874 4.85213 25.8874 5.61973ZM50.7435 20.3707V12.2837C51.5452 11.5391 52.1181 11.2528 52.92 11.2528C53.7217 11.2528 53.9507 11.5964 53.9507 12.8106V20.3707H57.5018V12.2378C57.5018 10.5654 57.2727 9.84374 56.8146 9.21381C56.2417 8.59521 55.5545 8.30888 54.5236 8.30888C53.149 8.30888 52.1181 8.81278 50.5144 10.1988V9.55741C50.5144 8.81278 50.1707 8.44621 49.4835 8.44621H46.047V9.7407H46.1615C46.8489 9.7407 47.1925 10.027 47.1925 10.6799V20.3707H50.7435ZM63.2327 18.0905H68.5018V20.37H59.338V17.8958L64.4927 10.7022H61.7435C61.0562 10.7022 60.7125 10.9656 60.7125 11.6186V11.8591H59.4525V9.69416C59.4525 8.81214 59.7961 8.44556 60.7125 8.44556H68.2727V10.8969L63.2327 18.0905Z" fill="#003781"/>
<path fill-rule="evenodd" clip-rule="evenodd" d="M88.7743 19.7138V6.22002C88.7743 5.13181 88.3162 4.7767 87.2852 4.7767H84.1923V6.26588H84.536C85.1088 6.26588 85.3378 6.48347 85.3378 7.14785V19.7138H88.7743ZM90.607 19.7138H93.9289V9.53047C93.9289 8.49954 93.4708 8.08715 92.4399 8.08715H90.607V19.7138ZM83.5051 19.7138V8.08715H81.6723C80.6414 8.08715 80.1832 8.49954 80.1832 9.53047V19.7138H83.5051ZM97.8236 12.9326C97.8236 19.2442 93.2416 23.849 87.056 23.849C80.8705 23.849 76.2885 19.2442 76.2885 12.9326C76.2885 6.62099 80.8705 2.01613 87.056 2.01613C93.2416 2.01613 97.8236 6.62099 97.8236 12.9326ZM100 12.9326C100 5.54424 94.5017 7.62939e-05 87.056 7.62939e-05C79.725 7.62939e-05 74.1122 5.54424 74.1122 12.9326C74.1122 20.3438 79.725 25.8879 87.056 25.8879C94.5017 25.8879 100 20.3438 100 12.9326Z" fill="#003781"/>
</svg>
