<svg width="24" height="24" viewBox="0 0 24 24" fill="none" xmlns="http://www.w3.org/2000/svg">
<path fill-rule="evenodd" clip-rule="evenodd" d="M1 11.9661C1 11.4513 1.44772 11.0339 2 11.0339H21C21.5523 11.0339 22 11.4513 22 11.9661C22 12.481 21.5523 12.8983 21 12.8983H2C1.44772 12.8983 1 12.481 1 11.9661Z" fill="#F1F2F6"/>
<path fill-rule="evenodd" clip-rule="evenodd" d="M16.7408 8.56282C17.1002 8.17193 17.7315 8.12666 18.1508 8.46171L21.6508 11.2583C21.8623 11.4273 21.9886 11.6709 21.9993 11.9303C22.01 12.1898 21.9041 12.4417 21.7071 12.6253L18.2071 15.888C17.8166 16.252 17.1834 16.252 16.7929 15.888C16.4024 15.5239 16.4024 14.9337 16.7929 14.5696L19.5293 12.0188L16.8492 9.87728C16.4299 9.54222 16.3813 8.95372 16.7408 8.56282Z" fill="#F1F2F6"/>
</svg>
