<svg width="24" height="24" viewBox="0 0 24 24" fill="none" xmlns="http://www.w3.org/2000/svg">
<path fill-rule="evenodd" clip-rule="evenodd" d="M9.02957 6H14.9704C14.757 4.22043 13.42 3 12 3C10.58 3 9.24302 4.22043 9.02957 6ZM7 6.5C7 3.57642 9.1311 1 12 1C14.8689 1 17 3.57642 17 6.5C17 6.70168 16.9901 6.90115 16.9708 7.09779C16.9205 7.60974 16.49 8 15.9756 8H8.02441C7.51 8 7.07951 7.60974 7.02921 7.09779C7.00988 6.90115 7 6.70168 7 6.5Z" fill="black"/>
<path fill-rule="evenodd" clip-rule="evenodd" d="M3.00878 6.86784C3.07502 6.37103 3.4988 6 4.00001 6H20C20.5012 6 20.925 6.37103 20.9912 6.86784L22.9912 21.8678C23.0293 22.1536 22.9423 22.4418 22.7524 22.6587C22.5625 22.8756 22.2883 23 22 23H2.00001C1.71175 23 1.43751 22.8756 1.24762 22.6587C1.05774 22.4418 0.970681 22.1536 1.00878 21.8678L3.00878 6.86784ZM4.87552 8L3.14219 21H20.8578L19.1245 8H4.87552Z" fill="black"/>
</svg>
