<svg width="100" height="40" viewBox="0 0 100 40" fill="none" xmlns="http://www.w3.org/2000/svg">
<path d="M19.4407 0.488875C19.4407 0.679032 19.2729 0.73496 18.434 0.835631C18.0984 0.880374 17.7741 0.958674 17.7069 1.00342C17.651 1.04816 17.4497 1.11527 17.2595 1.16002C16.9128 1.23832 16.7673 1.29424 15.4698 1.92064C13.8367 2.69245 11.264 4.43742 9.83222 5.74615C8.40045 7.04368 6.18569 9.34793 5.67115 10.0862C5.52573 10.2875 5.32439 10.556 5.21253 10.6678C5.10068 10.7909 4.87696 11.0929 4.70918 11.339C4.54139 11.5963 4.37361 11.82 4.34005 11.8535C4.29531 11.8871 4.14989 12.1108 4.00448 12.3569C3.85906 12.603 3.70247 12.8267 3.66891 12.8602C3.53468 12.9609 3.04251 13.867 2.38255 15.2092C2.0358 15.9139 1.71141 16.5851 1.6443 16.6857C1.58837 16.7976 1.54363 16.943 1.54363 17.0213C1.54363 17.0996 1.47651 17.301 1.38703 17.4687C1.29754 17.6365 1.19687 17.9274 1.15213 18.1287C1.10739 18.3412 1.02909 18.5761 0.973157 18.6768C0.559287 19.4486 2.29478e-06 24.3815 0.29083 24.7506C0.346759 24.8289 0.436244 25.1757 0.480987 25.5336C0.514544 25.8916 0.626401 26.3166 0.715886 26.4844C0.794186 26.6522 0.872486 26.8535 0.872486 26.943C0.872486 27.2338 1.90157 28.632 2.52797 29.1913C3.21029 29.7954 4.49665 30.4889 5.12305 30.6007C5.33558 30.6455 5.57048 30.7126 5.6264 30.7685C5.82775 30.9139 8.37808 30.9922 9.42954 30.8804C10.6823 30.735 12.2036 30.4889 12.3602 30.3882C12.4161 30.3546 12.7405 30.2652 13.0761 30.2092C13.4116 30.1421 14.0045 30.0079 14.4072 29.9072C14.8099 29.8177 15.4139 29.6611 15.7718 29.5828C16.1186 29.5045 16.443 29.415 16.5101 29.3815C16.566 29.3368 16.8792 29.2584 17.2148 29.2025C17.5503 29.1354 18.1991 29.0012 18.6577 28.9117C19.1163 28.811 19.7987 28.6768 20.1678 28.6209C20.5369 28.5649 21.0627 28.4643 21.3423 28.3972C22.0694 28.2182 25.8613 28.1287 26.5436 28.2741C26.8568 28.3412 27.3378 28.4531 27.6287 28.509C27.9195 28.5761 28.2439 28.6656 28.3557 28.7327C28.4676 28.7886 28.8255 28.9564 29.1499 29.0907C29.4631 29.2361 29.7316 29.3927 29.7316 29.4374C29.7316 29.4933 29.7875 29.5269 29.8546 29.5269C30.0783 29.5269 30.962 30.3099 31.3759 30.8804L31.7785 31.4173L32.4609 30.8021C33.7696 29.6164 35 29.3032 37.5392 29.5269C38.2998 29.5828 39.0157 29.6947 39.1275 29.7506C39.2394 29.8177 39.4519 29.8625 39.5973 29.8625C39.7428 29.8625 40 29.9408 40.179 30.0303C40.3468 30.1197 40.5817 30.198 40.6824 30.198C40.783 30.198 41.2193 30.377 41.6331 30.5895C42.0582 30.8021 42.4497 30.981 42.4944 30.981C42.7853 30.981 42.4721 30.679 41.3982 29.8625C40.7271 29.3703 40.1454 28.9341 40.0783 28.8781C40.0224 28.8334 39.7651 28.6656 39.519 28.5202C39.273 28.3748 39.0492 28.2182 39.0157 28.1734C38.9486 28.084 36.9911 27.0661 36.8792 27.0661C36.8345 27.0661 36.6555 27.0101 36.4765 26.9318C35.962 26.7193 35.2126 26.5068 34.3177 26.3166C33.2439 26.0929 29.4743 25.9922 28.613 26.1712C28.2774 26.2383 27.5951 26.339 27.1029 26.3949C25.8501 26.5403 23.8255 26.9318 22.1253 27.3569C21.7226 27.4464 21.1186 27.5918 20.783 27.6589C20.4474 27.7372 20.1231 27.8267 20.0559 27.8602C20 27.905 19.7204 27.9721 19.4407 28.0057C19.1611 28.0504 18.8367 28.1287 18.7137 28.1846C18.5906 28.2406 18.2439 28.3412 17.9307 28.3972C17.0694 28.5649 16.2864 28.7439 15.9172 28.8558C15.4027 29.0124 13.5794 29.3032 11.7785 29.5157C10.9843 29.6052 10.5034 29.6052 9.49665 29.471C8.79195 29.3703 8.16555 29.2584 8.09844 29.2025C8.03133 29.1578 7.82998 29.0795 7.65101 29.0347C6.96869 28.867 5.68233 27.8602 5.3132 27.2003C5.06712 26.7752 4.70918 26.0034 4.56376 25.6119C4.37361 25.075 4.29531 22.7819 4.42953 22.0884C4.73155 20.679 4.79866 20.3994 4.89933 20.0862C4.95526 19.896 5.11186 19.3927 5.24609 18.9788C5.38032 18.5649 5.53692 18.1958 5.58166 18.1623C5.63759 18.1287 5.68233 18.028 5.68233 17.9274C5.68233 17.8267 5.8613 17.3793 6.07383 16.9318C6.28636 16.4844 6.46533 16.0705 6.46533 16.0146C6.46533 15.9475 6.49889 15.8804 6.55482 15.858C6.59956 15.8356 6.75616 15.5672 6.90157 15.2652C7.23714 14.5716 8.16555 13.0504 8.82551 12.0772C9.50784 11.0817 9.86578 10.5784 9.93289 10.5112C9.96645 10.4777 10.2685 10.0974 10.604 9.67232C11.4653 8.56494 11.7897 8.19581 13.6242 6.37254C15.358 4.62758 15.8054 4.23608 16.7338 3.59849C18.5235 2.36807 19.5526 1.92064 20.7942 1.81997C21.3982 1.77523 21.443 1.78641 21.8345 2.17791C22.0806 2.424 22.2372 2.68127 22.2372 2.84905C22.2372 3.207 21.868 3.57612 21.5101 3.57612C21.1969 3.57612 20.4922 3.98999 20.2125 4.32556C19.877 4.73943 19.6644 5.28753 19.6644 5.76852C19.6644 6.19357 19.7092 6.27187 20.0448 6.4844L20.4363 6.7193L20.8725 6.49559C22.226 5.80207 23.2886 3.60968 22.9195 2.27858C22.7517 1.641 22.1029 0.913931 21.6219 0.824445C21.387 0.779703 21.2081 0.679032 21.1745 0.544803C21.1074 0.365832 20.9844 0.332275 20.2685 0.332275C19.6197 0.332275 19.4407 0.365832 19.4407 0.488875ZM67.0918 0.846817C66.8792 0.880374 66.5437 0.969859 66.3423 1.05934C66.1522 1.14883 65.9173 1.22713 65.8166 1.22713C65.7159 1.22713 65.5481 1.27187 65.4363 1.33899C65.3356 1.39492 65 1.55151 64.6868 1.67456C63.1208 2.33451 60.5593 3.87814 59.1387 5.03026C57.6846 6.21594 57.1924 6.65219 56.0179 7.82668C54.2841 9.56046 53.4564 10.5224 52.1812 12.245C51.5884 13.0392 51.0627 13.7439 51.0067 13.811C50.962 13.867 50.7942 14.1242 50.6488 14.3703C50.5034 14.6164 50.3468 14.8401 50.3132 14.8737C50.1454 15.0079 48.8591 17.2786 48.3222 18.3972C47.9978 19.0683 47.6734 19.7171 47.6175 19.8177C47.5616 19.9296 47.5168 20.075 47.5168 20.1421C47.5168 20.2092 47.4497 20.4218 47.3602 20.6119C46.6779 22.1555 46.3535 24.0571 46.4318 26.0034C46.4989 27.3345 46.5548 27.603 47.0918 28.7215C47.3602 29.292 48.0873 30.0862 48.5794 30.3435C49.5973 30.8804 49.7763 30.9251 51.1298 30.9139C51.8457 30.9027 52.5056 30.8468 52.5839 30.7797C52.651 30.7238 52.8971 30.6343 53.1096 30.5895C53.4452 30.5112 54.4631 30.0638 55.3468 29.5716C56.085 29.169 57.7405 27.726 58.5906 26.7305C58.9262 26.3278 59.2618 25.9475 59.3401 25.858C59.8658 25.2987 61.1074 23.1734 61.6108 21.9766C61.745 21.6634 61.8904 21.3166 61.9463 21.1936C62.0023 21.0705 62.0806 20.7909 62.1253 20.5784C62.1589 20.3658 62.2484 20.1197 62.3155 20.0414C62.3826 19.9631 62.4273 19.2808 62.4385 18.4755C62.4497 16.9766 62.3938 16.7864 61.8121 16.1936C61.4765 15.8468 60.7047 15.7238 59.8546 15.8804C59.4408 15.9475 59.0493 16.0482 58.9821 16.0929C58.9262 16.1488 58.7472 16.2271 58.6018 16.2719C58.132 16.4173 56.8792 17.3345 56.1745 18.0504C55.4139 18.8222 55.056 19.3479 54.4855 20.5224C54.273 20.9475 54.0492 21.3949 53.9933 21.4956C53.9374 21.6074 53.8927 21.7752 53.8927 21.8759C53.8927 21.9654 53.8255 22.1555 53.7584 22.2898C53.5347 22.6701 53.0649 24.594 53.1544 24.6947C53.188 24.7171 53.6242 24.3815 54.1387 23.9452C54.6533 23.509 55.1231 23.1511 55.2014 23.1511C55.2685 23.1511 55.3468 23.1063 55.3692 23.0616C55.4139 22.9497 56.4654 22.3121 56.7562 22.2115C56.9016 22.1667 57.0358 21.9206 57.1812 21.4508C57.8971 19.0459 59.4519 17.1108 60.66 17.1108C61.745 17.1108 62.047 17.9497 61.622 19.8513C61.5548 20.1533 61.443 20.4553 61.3871 20.5112C61.3199 20.5784 61.2752 20.7238 61.2752 20.8356C61.2752 20.9475 61.2081 21.1824 61.1186 21.339C61.0291 21.5068 60.839 21.8871 60.6935 22.2003C60.4363 22.7708 59.8322 23.8334 59.7092 23.9341C59.6757 23.9676 59.396 24.3144 59.094 24.7171C57.8636 26.339 56.0515 27.9833 54.877 28.509C54.1835 28.8222 53.2998 28.9117 52.4944 28.7439C51.9463 28.632 51.7562 28.5202 51.3311 28.084C50.6376 27.3793 50.3915 26.5627 50.4586 25.2652C50.5034 24.2361 50.7271 22.9385 50.8837 22.7708C50.9396 22.7036 50.9844 22.5359 50.9844 22.3793C50.9844 22.2115 51.0627 21.943 51.1522 21.764C51.2416 21.5963 51.3199 21.3614 51.3199 21.2607C51.3199 21.16 51.3982 20.9363 51.4877 20.7573C51.5772 20.5895 51.6555 20.3882 51.6555 20.3323C51.6555 19.8848 53.5123 16.3502 54.698 14.5493C54.8099 14.3927 54.9553 14.1466 55.0224 14.0012C55.1007 13.867 55.1902 13.7551 55.2349 13.7551C55.2797 13.7551 55.3468 13.6656 55.3803 13.5538C55.4475 13.3636 56.1522 12.3793 57.2036 11.0258C59.4967 8.08395 62.6958 5.04145 65.3021 3.33004C66.1186 2.79313 67.6399 2.01013 67.8748 2.01013C67.9754 2.01013 68.0985 1.96538 68.1656 1.89827C68.2215 1.84234 68.5795 1.76404 68.9374 1.73049C70.1119 1.61863 70.1902 1.96538 69.1499 2.6589C68.8479 2.86024 68.5012 3.11751 68.3781 3.21818C68.2551 3.31885 67.83 3.66561 67.4273 3.98999C65.9508 5.1533 64.575 6.7976 63.792 8.31885C63.1097 9.64995 62.9419 10.198 62.9195 11.0482C62.8859 12.3345 63.2886 12.7708 64.4967 12.7708C65.0895 12.7708 65.3468 12.7148 65.962 12.4016C66.924 11.9095 68.6242 10.2428 69.4631 8.94525C70.3244 7.63653 71.0515 6.1712 71.1857 5.47769C71.2193 5.26516 71.2976 5.03026 71.3535 4.96315C71.4094 4.90722 71.4766 4.33675 71.5101 3.69917C71.5325 3.07277 71.5884 2.51348 71.622 2.45755C71.6555 2.40163 71.9575 2.30096 72.2819 2.22266C72.7853 2.1108 73.0314 2.12198 73.792 2.27858C74.2953 2.37926 74.7875 2.5023 74.8994 2.55823C75 2.60297 75.2685 2.72601 75.481 2.8155C75.6936 2.91617 75.9956 3.03921 76.1522 3.10632C76.4654 3.25174 77.349 3.73272 77.6063 3.91169C77.6958 3.96762 78.1768 4.28082 78.669 4.60521C79.1611 4.91841 79.9665 5.44413 80.4587 5.75733C81.5213 6.43966 82.3826 6.93183 82.5392 6.93183C82.6399 6.93183 84.6757 4.87366 84.7316 4.71706C84.754 4.67232 84.5191 4.52691 84.2282 4.38149C83.9374 4.24726 83.6242 4.09066 83.5347 4.03474C81.6332 2.86024 79.5974 1.76404 78.5571 1.33899C77.3267 0.846817 77.2596 0.835631 75.0672 0.835631C73.5012 0.835631 72.8859 0.869188 72.7741 0.969859C72.707 1.04816 72.5504 1.11527 72.4385 1.11527C72.3267 1.11527 71.9575 1.20476 71.6331 1.3278L71.0403 1.54033L70.4922 1.19357C69.9777 0.869188 69.877 0.846817 68.7137 0.824445C68.0425 0.81326 67.3043 0.824445 67.0918 0.846817ZM70.7383 3.07277C70.8278 3.41952 70.5929 5.1533 70.4475 5.29872C70.3804 5.36583 70.3356 5.50006 70.3356 5.61192C70.3356 6.12646 69.094 8.38597 68.2998 9.31438C67.3714 10.4106 66.0403 11.6298 65.7607 11.6298C65.6936 11.6298 65.6376 11.6746 65.6376 11.7305C65.6376 11.82 64.6645 12.1891 64.4184 12.1891C64.3513 12.1891 64.1276 12.0101 63.9038 11.7976C63.3446 11.2271 63.3781 10.7909 64.1499 9.22489C64.6197 8.24055 64.6645 8.18462 65.4251 7.15554C66.3871 5.86919 67.8859 4.40386 69.0716 3.59849C70.3468 2.72601 70.6264 2.63653 70.7383 3.07277Z" fill="#CF1A1A"/>
<path d="M91.5884 1.10409C90.9955 1.28306 89.9553 1.76404 89.6644 1.99894C89.5861 2.06606 88.9933 2.5023 88.3445 2.98328C86.8792 4.06829 83.0873 7.8155 81.6891 9.54928C81.4542 9.85129 81.1298 10.2316 80.9844 10.3882C80.3915 11.0258 78.2774 13.9564 77.6622 15.0079C77.6063 15.1197 77.2819 15.6343 76.9687 16.16C76.6443 16.6969 76.3759 17.1667 76.3759 17.2227C76.3759 17.2786 76.3087 17.3904 76.2416 17.4687C76.1633 17.5582 76.0067 17.7931 75.8837 18.0057C75.7718 18.2182 75.5034 18.7215 75.2797 19.1242C75.0671 19.5269 74.6533 20.2987 74.3736 20.8468C74.0716 21.4285 73.7696 21.8759 73.6354 21.9206C73.0313 22.1444 72.5839 22.2562 72.3043 22.2562C72.0022 22.2562 71.9911 22.245 72.0694 21.8312C72.1141 21.6074 72.2148 21.2942 72.2931 21.1376C72.5615 20.6567 72.7741 20.0862 72.8524 19.6835C72.8971 19.471 72.9866 19.2361 73.0425 19.1578C73.0984 19.0795 73.1544 18.5202 73.1656 17.905C73.1767 16.8647 73.1544 16.7752 72.8747 16.3949C72.651 16.1153 72.4049 15.9475 71.9687 15.8133C71.3982 15.6343 71.3199 15.6343 70.7047 15.8133C69.1499 16.2719 67.9083 17.0884 66.2081 18.7775C64.7539 20.2316 64.3065 20.735 63.736 21.5851C63.6465 21.7193 63.5011 21.8983 63.434 21.9878C63.3557 22.0661 63.2886 22.1555 63.2886 22.1891C63.2886 22.2227 63.1432 22.4576 62.9642 22.726C62.5056 23.3971 61.6331 25.1197 61.5548 25.5112C61.5101 25.6902 61.4318 25.858 61.3758 25.8916C61.3199 25.9363 61.2752 26.0593 61.2752 26.1712C61.2752 26.2942 61.1969 26.6186 61.0962 26.9095C60.9844 27.2338 60.9172 27.8379 60.9172 28.509C60.906 29.7171 61.1074 30.2875 61.689 30.7014C62.1141 31.0034 63.6577 31.0146 64.0716 30.7238C64.217 30.6231 64.4295 30.5336 64.5414 30.5336C64.6533 30.5336 64.7427 30.5001 64.7427 30.4441C64.7427 30.3994 64.9776 30.2316 65.2797 30.0638C65.8166 29.7506 65.9284 29.6611 67.2707 28.4866C67.9754 27.8714 68.2886 27.5247 69.2729 26.339C69.4184 26.1488 69.5973 25.9475 69.6644 25.8692C69.7204 25.7909 69.7763 25.7014 69.7763 25.6678C69.7763 25.5784 70.2685 24.896 70.3691 24.8513C70.4139 24.8289 70.4474 24.7394 70.4474 24.6611C70.4474 24.5716 70.5146 24.4374 70.5929 24.3591C70.6712 24.2808 70.8613 23.9788 71.0067 23.688C71.3199 23.0504 71.745 22.8155 72.6063 22.8155C73.311 22.8155 73.4564 22.9721 73.1879 23.4866C73.0984 23.6656 73.0201 23.8558 73.0201 23.9229C73.0201 23.9788 72.9642 24.169 72.8859 24.3479C72.528 25.198 72.1365 26.7864 72.0023 27.8491C71.8345 29.3032 72.047 30.1197 72.7293 30.6567C73.3333 31.1265 74.8434 30.9699 75.5481 30.3658C75.6264 30.2987 75.8501 30.1309 76.0627 29.9743C76.264 29.8177 76.8121 29.3256 77.2707 28.8893C77.7293 28.4419 78.1432 28.0728 78.1879 28.0728C78.2886 28.0728 78.2886 28.0728 78.3222 29.0907C78.3557 29.9296 78.6354 30.5001 79.1275 30.7685C79.6085 31.0146 80.7047 30.9699 81.3311 30.6567C81.8345 30.4106 83.3445 29.3144 83.5906 29.0124C83.6577 28.9452 83.8255 28.8446 83.9709 28.7998C84.217 28.7215 84.2282 28.7439 84.1611 29.0907C84.0828 29.5381 84.3401 30.4553 84.6085 30.735C84.7651 30.8804 85 30.9251 85.6488 30.9139C86.443 30.9139 86.5436 30.8804 87.2819 30.4329C88.4117 29.7394 89.3065 28.9452 90.6376 27.5023C91.5213 26.5403 91.8345 26.1712 92.047 25.8356C92.1477 25.679 92.349 25.4329 92.4832 25.2763C92.6175 25.1197 92.8971 24.7394 93.1096 24.4374C93.311 24.1242 93.5682 23.7663 93.6689 23.6209C93.8479 23.3748 93.8479 23.3748 93.4452 23.3748C93.0649 23.3748 92.9978 23.4419 92.2707 24.4039C91.3199 25.6902 90.9061 26.1824 90.1902 26.8983C88.8926 28.1958 88.1544 28.5761 87.7741 28.1175C87.5504 27.849 87.7629 27.3904 89.4967 24.5045C90.358 23.0616 91.1521 21.7305 91.2416 21.5515C91.3423 21.3725 91.4765 21.1488 91.5325 21.0482C91.924 20.3994 92.226 19.9296 92.349 19.7394C92.4161 19.6164 92.5392 19.3927 92.6063 19.2361C92.6622 19.0907 92.7517 18.9341 92.7964 18.9005C92.8412 18.8669 92.9978 18.6097 93.1544 18.3077C93.2998 18.0168 93.4676 17.7819 93.5123 17.7819C93.5683 17.7819 93.6018 17.726 93.6018 17.6589C93.6018 17.5806 93.7584 17.2786 93.9374 16.9766C94.1275 16.6857 94.2729 16.3725 94.2729 16.2942C94.2729 16.1936 93.9374 16.1712 92.9195 16.1824C91.6331 16.2159 91.5436 16.2271 91.2976 16.4956C91.1521 16.6522 90.9955 16.7752 90.9508 16.7752C90.9061 16.7752 90.6935 16.5963 90.481 16.3837C89.9776 15.858 89.4296 15.7238 88.5347 15.8804C88.1544 15.9587 87.7964 16.0482 87.7293 16.1041C87.6734 16.1488 87.4944 16.2271 87.349 16.2719C87.1924 16.3166 87.0246 16.3949 86.9575 16.4508C86.8904 16.5068 86.5101 16.7864 86.1298 17.0661C85.7383 17.3457 85.1902 17.7819 84.8993 18.0392C84.3401 18.5649 82.4049 20.7685 82.1029 21.2271C82.0023 21.3949 81.868 21.5851 81.8009 21.6522C81.745 21.7193 81.6219 21.8759 81.5436 21.9878C81.4653 22.1108 81.2304 22.4464 81.0067 22.7596C80.783 23.0616 80.3691 23.6656 80.0895 24.1018C79.7987 24.5269 79.5414 24.9072 79.5078 24.9408C79.4631 24.9743 79.3177 25.198 79.1723 25.4441C79.0269 25.6902 78.8703 25.9139 78.8367 25.9475C78.8031 25.981 78.5347 26.3054 78.255 26.6746C76.9799 28.3412 76.0179 28.8222 75.481 28.0728C75.2908 27.8043 75.2461 27.6142 75.2908 27.2562C75.3691 26.5068 75.604 25.4553 75.7159 25.3435C75.7718 25.2763 75.8166 25.1309 75.8166 25.0191C75.8166 24.9072 75.8837 24.6499 75.9732 24.4598C76.0515 24.2584 76.2081 23.8781 76.3199 23.5985C76.7002 22.6365 77.3826 21.2495 77.472 21.2495C77.5951 21.2495 80.2685 19.3032 80.7942 18.8222C80.9172 18.7103 81.3199 18.3748 81.6891 18.0616C82.5504 17.3457 86.6891 13.2406 87.3155 12.4911C87.7964 11.8983 88.1656 11.462 88.6018 10.9587C88.736 10.8021 89.094 10.3658 89.3848 9.97433L89.9217 9.28082H89.5302C89.1946 9.28082 89.0828 9.35912 88.5459 10.0303C88.2215 10.4553 87.9083 10.8468 87.8412 10.9139C87.7853 10.981 87.3826 11.4397 86.9575 11.9206C85.9732 13.0392 82.8524 16.16 81.745 17.1332C81.2864 17.547 80.7271 18.028 80.5146 18.2182C80.302 18.4083 80.0895 18.5649 80.0448 18.5649C80 18.5649 79.8993 18.632 79.8099 18.7215C79.4967 19.0347 78.8031 19.4598 78.613 19.4598C78.4564 19.4598 78.4228 19.3927 78.4676 19.2025C78.5011 19.0683 78.5906 18.8781 78.6577 18.7886C78.736 18.6992 78.9038 18.3972 79.038 18.1175C79.1835 17.8379 79.3401 17.5359 79.396 17.4464C79.4519 17.3569 79.9105 16.5739 80.4139 15.7126C80.9284 14.8513 81.3759 14.1242 81.4318 14.113C81.4765 14.0907 81.5213 14.0347 81.5213 13.9788C81.5213 13.9005 81.868 13.3412 82.4385 12.4799C82.6063 12.2338 83.4228 11.0929 84.1163 10.1197C86.085 7.35688 89.4855 3.74391 91.2864 2.47993C91.9575 2.01013 92.5392 1.83116 92.7741 2.02131C93.0201 2.22266 92.8636 3.01684 92.4049 4.00118C92.1924 4.45979 92.047 4.85129 92.0806 4.88485C92.1589 4.96315 92.9307 4.69469 92.9307 4.58283C92.9307 4.52691 92.9866 4.34793 93.0649 4.16896C93.4676 3.18462 93.5906 2.67008 93.6018 2.0325V1.3278L93.0873 1.11527C92.4944 0.858002 92.4161 0.858002 91.5884 1.10409ZM71.9799 17.0996C72.3714 17.424 72.6175 18.2965 72.472 18.7998C72.4049 19.0235 72.349 19.292 72.349 19.3927C72.349 19.7842 71.3647 21.7976 71.085 21.9654C70.6935 22.2115 69.3624 21.2271 68.9933 20.3994C68.5682 19.4933 68.8031 18.6656 69.7427 17.7596C70.5929 16.9318 71.4765 16.6746 71.9799 17.0996ZM90.1007 17.1779C90.6152 17.3121 90.5257 17.7148 89.6533 19.1578C89.2058 19.9072 88.8032 20.6007 88.7584 20.6902C88.7137 20.7797 88.5906 20.9922 88.4788 21.16C88.3781 21.3278 87.9195 22.0772 87.4609 22.8379C87.0023 23.5985 86.5996 24.2361 86.5548 24.2696C86.5213 24.3032 86.3647 24.5269 86.2193 24.773C86.0738 25.0191 85.8949 25.2763 85.8278 25.3546C85.6264 25.6007 85.4922 25.7685 85.1902 26.2271C84.4519 27.3233 83.3222 28.2965 82.7741 28.2965C82.3155 28.2965 81.924 27.8267 82.0023 27.3457C82.1589 26.3837 82.5504 25.4777 83.5347 23.7663C85.4251 20.4889 88.5235 17.0996 89.6309 17.1108C89.7539 17.1108 89.9665 17.1444 90.1007 17.1779ZM68.6018 21.339C69.0269 21.7976 69.5302 22.2003 69.877 22.3681C70.4363 22.6365 70.7383 23.084 70.481 23.2517C70.4139 23.2853 70.2461 23.5314 70.1007 23.7886C68.7584 26.1041 66.5101 28.2965 65.4698 28.2965C65.3244 28.2965 65.0224 28.1175 64.7875 27.905L64.3736 27.5135L64.4295 26.7193C64.4631 26.2831 64.5526 25.8692 64.6197 25.8021C64.6868 25.735 64.7427 25.6007 64.7427 25.5001C64.7427 25.2428 65.7495 23.2853 66.3087 22.4576C66.5772 22.0661 66.9687 21.4844 67.1812 21.16C67.3937 20.8468 67.6398 20.5784 67.7405 20.5784C67.83 20.5784 68.2103 20.9251 68.6018 21.339Z" fill="#CF1A1A"/>
<path d="M99.1387 2.09952C98.1656 2.8937 97.0582 3.6767 96.6219 3.87804C96.5324 3.9116 96.4318 3.97871 96.3982 4.02345C96.2864 4.15768 93.9262 5.25388 93.736 5.25388C93.6801 5.25388 93.4788 5.33218 93.311 5.42166C93.132 5.51115 92.8635 5.58945 92.6958 5.58945C92.5392 5.58945 92.3602 5.64538 92.3043 5.70131C92.17 5.83553 90.5257 6.03688 89.5078 6.03688C88.8255 6.03688 88.8255 6.03688 88.2774 6.62972C87.2595 7.72591 86.7785 8.29638 86.7785 8.38587C86.7785 8.6767 90.0336 8.55365 91.2528 8.2069C92.5168 7.84896 94.6085 6.86462 95.4474 6.23822C96.7002 5.30981 98.132 3.96752 98.9709 2.94963C99.4072 2.4239 100 1.55142 99.9553 1.50667C99.9329 1.4843 99.5638 1.75276 99.1387 2.09952ZM20.5033 8.24046C20.3244 8.26283 20.0783 8.3635 19.9552 8.45298C19.8322 8.54247 19.6644 8.60958 19.5861 8.60958C19.4519 8.60958 18.3445 9.23598 18.2103 9.39258C18.1767 9.42614 17.9418 9.59392 17.6846 9.76171C17.2148 10.0861 15.6264 11.6073 14.7986 12.5246C13.6689 13.7774 12.472 15.5783 11.8009 17.01C11.0067 18.7214 10.8837 19.2136 10.8837 20.746C10.8837 22.1331 10.9731 22.4686 11.4989 22.9049C11.8344 23.1845 12.5615 23.4865 12.8859 23.4865C13.6913 23.4754 15.2573 22.7147 16.3646 21.8087C17.17 21.1487 19.4183 18.7774 19.8322 18.1733C20.0783 17.8042 20.3132 17.4798 20.3691 17.4686C20.4139 17.4463 20.4474 17.3903 20.4474 17.3344C20.4474 17.2449 21.1297 16.1599 21.3423 15.9138C21.3982 15.8355 21.4541 15.746 21.4541 15.7125C21.4541 15.6677 21.5884 15.4664 21.745 15.2651C21.9687 14.9631 22.1365 14.8736 22.5503 14.8065C22.8412 14.7617 23.1655 14.6834 23.2774 14.6275C23.4228 14.5604 23.4899 14.5716 23.5347 14.7058C23.6018 14.8848 23.434 15.2986 22.953 16.104C22.83 16.3165 22.6174 16.7751 22.472 17.1107C22.3378 17.4463 22.1812 17.8266 22.1253 17.9496C21.8904 18.4418 21.7561 19.236 21.7114 20.2763C21.6667 21.2047 21.7002 21.4507 21.8792 21.8422C22.1924 22.5134 22.7852 23.0839 23.2886 23.2181C23.4564 23.2516 23.613 23.3299 23.6465 23.3859C23.7472 23.5648 25.0671 23.4865 25.7159 23.274C26.3087 23.0727 27.3937 22.5581 27.651 22.3568C27.7181 22.312 28.2103 21.9317 28.7584 21.529C29.2953 21.1264 29.9552 20.5894 30.2237 20.321C30.8165 19.7505 31.1521 19.538 31.2416 19.6834C31.2752 19.7393 31.2416 19.9071 31.1745 20.0413C31.085 20.198 31.0291 20.7796 31.0291 21.4843C31.0179 22.8825 31.0962 23.0279 31.991 23.3299C32.4608 23.4865 32.6174 23.4865 33.0649 23.3747C34.1723 23.0727 35 22.5917 35.962 21.6856C36.2192 21.4507 36.4765 21.2494 36.5324 21.2494C36.6667 21.2494 36.7785 21.6409 36.7785 22.1778C36.7785 22.7483 37.0358 23.1062 37.6063 23.3188C38.0537 23.4865 38.132 23.4865 38.6353 23.3188C39.2282 23.1286 39.8881 22.8378 40.0671 22.6924C40.1342 22.6364 40.4922 22.368 40.8613 22.0771C41.8456 21.3277 43.6913 19.3814 44.9553 17.7818C45.5705 17.01 46.1186 16.3277 46.1745 16.2494C46.3535 16.0369 46.3087 15.9921 45.9172 15.9921C45.5705 15.9921 45.4474 16.104 44.6309 17.0771C43.5235 18.4306 41.7785 20.142 41.264 20.3881C40.302 20.8579 39.9217 20.2874 40.5257 19.2919C40.6823 19.0458 40.8613 18.7214 40.9284 18.5648C40.9843 18.4194 41.085 18.2628 41.1297 18.2293C41.1745 18.1957 41.3423 17.9608 41.4877 17.7035C41.6331 17.4575 42.0134 16.8199 42.3154 16.3165C42.6286 15.802 42.9306 15.2986 42.9866 15.1868C43.0537 15.0749 43.9597 13.5537 45.0224 11.8087C46.0738 10.0525 46.9128 8.5984 46.868 8.56484C46.8344 8.53128 46.2192 8.49773 45.5034 8.49773C44.4855 8.49773 44.1611 8.53128 44.0492 8.66551C43.7919 8.97871 43.5347 8.96753 43.1655 8.62077C42.6286 8.11741 41.6331 8.03911 40.7494 8.4418C40.5705 8.53128 40.3356 8.62077 40.2461 8.65433C39.4183 8.96753 37.047 11.0257 35.9172 12.4127C35.7494 12.6252 35.4922 12.9273 35.3468 13.0839C35.2013 13.2405 34.6197 13.9675 34.0604 14.7058C32.472 16.8087 31.6778 17.7483 30.4251 19.0235C28.0089 21.4731 26.4765 22.0212 25.4474 20.8132C25.1901 20.5112 25.1454 20.3434 25.1454 19.8065C25.1454 19.2248 25.4139 18.1174 25.6935 17.5022C25.7606 17.3792 25.9284 16.9988 26.085 16.6633C26.3982 15.9921 26.8456 15.1532 27.0693 14.84C27.1476 14.7282 27.3154 14.4709 27.4385 14.2584C27.7964 13.6543 28.2998 12.9496 28.7248 12.4798C29.9553 11.104 31.4877 9.72815 31.8009 9.72815C31.8792 9.72815 31.9687 9.66104 32.0022 9.58274C32.0246 9.50444 32.2595 9.44851 32.6063 9.44851C33.0761 9.44851 33.2103 9.49325 33.4116 9.72815C33.8591 10.2762 33.6242 10.7572 32.83 10.8915C31.8009 11.0816 30.8837 12.7595 31.4765 13.3523C31.9351 13.8109 32.8523 13.4082 33.4564 12.491C34.0716 11.5402 34.217 11.1711 34.2841 10.321C34.3624 9.41495 34.1834 8.9899 33.5123 8.49773C33.1879 8.25164 33.0313 8.22927 32.1365 8.22927C31.4206 8.24046 31.0291 8.29638 30.7942 8.41943C30.6152 8.5201 30.425 8.60958 30.3803 8.60958C30.2908 8.60958 29.1499 9.28072 29.0604 9.39258C29.0268 9.42614 28.7248 9.67222 28.3893 9.94068C28.0537 10.198 27.3266 10.8243 26.7785 11.3277C25.3691 12.6252 25.1007 12.8601 25.0112 12.8601C24.9664 12.8601 24.8658 12.9384 24.7763 13.0167C24.5078 13.2852 23.1655 13.9787 22.9083 13.9787C22.6398 13.9787 22.4832 13.6879 22.6734 13.4977C22.7405 13.4306 22.7964 13.3076 22.7964 13.2181C22.7964 13.1286 22.8635 12.9049 22.953 12.7147C23.4787 11.4843 23.613 9.89594 23.2438 9.16887C22.9083 8.50891 22.4608 8.25164 21.5772 8.21808C21.1745 8.19571 20.6935 8.2069 20.5033 8.24046ZM22.0693 9.48207C22.4273 9.73934 22.6174 10.2539 22.6063 10.9362C22.6063 11.3277 22.5391 11.708 22.472 11.7751C22.4049 11.8422 22.349 11.9877 22.349 12.1107C22.349 12.312 22.0246 13.1174 21.7338 13.6431C21.3087 14.4038 19.698 13.755 19.0268 12.5581C18.8591 12.2561 18.8367 11.5626 18.9933 11.4619C19.0604 11.4284 19.1051 11.2941 19.1051 11.1823C19.1051 10.9138 20.3467 9.64985 20.783 9.47088C21.0291 9.38139 21.9351 9.3814 22.0693 9.48207ZM42.9306 9.61629C43.255 9.94068 43.2662 9.91831 42.4049 11.3501C42.3266 11.4731 42.2148 11.708 42.1365 11.8758C42.0693 12.0548 41.9799 12.189 41.9239 12.189C41.8792 12.189 41.8121 12.2785 41.7673 12.3792C41.7338 12.491 41.5995 12.7259 41.4765 12.9161C41.3535 13.095 41.1969 13.3859 41.1297 13.5537C41.0626 13.7326 40.962 13.8669 40.906 13.8669C40.8501 13.8669 40.8054 13.934 40.8054 14.0123C40.8054 14.1018 40.66 14.3814 40.4698 14.6275C40.2908 14.8848 40.1342 15.142 40.1342 15.198C40.1342 15.2539 40.0671 15.3769 39.9888 15.4552C39.9105 15.5335 39.6085 16.0033 39.3065 16.4843C39.0157 16.9765 38.6018 17.6029 38.3893 17.8825C38.1767 18.1622 37.8971 18.5425 37.7629 18.7326C37.6286 18.9116 37.1476 19.4373 36.7002 19.8736C35.9731 20.6006 35.8277 20.6901 35.4586 20.6901C35.2349 20.6901 34.9888 20.6454 34.9217 20.6006C34.6644 20.4328 34.519 19.9966 34.5973 19.6051C34.6756 19.2024 34.698 19.1241 35.0224 18.4754C35.123 18.2628 35.2125 18.0503 35.2125 17.9832C35.2125 17.9161 35.4362 17.491 35.7159 17.0324C35.9955 16.585 36.2192 16.1823 36.2192 16.1599C36.2192 16.0704 36.9351 15.0414 37.774 13.9228C40.5816 10.1532 42.1588 8.84448 42.9306 9.61629ZM18.4116 13.2964C18.6577 13.6879 19.6085 14.4261 19.8769 14.4261C20.0559 14.4261 20.8948 14.8848 20.8948 14.9742C20.8948 15.0861 20.5369 15.8132 20.4474 15.8803C20.4139 15.9138 20.2573 16.1375 20.1118 16.3836C19.9664 16.6297 19.7987 16.8758 19.7539 16.9429C19.7092 16.9988 19.4407 17.3568 19.1723 17.7259C18.4787 18.6655 16.9239 20.1308 16.2752 20.444C15.6264 20.7684 15.2684 20.7125 14.8322 20.2091C14.2729 19.5939 14.4183 18.6096 15.3467 16.6633C15.8389 15.623 17.4049 13.1622 17.7069 12.9496C17.9418 12.7707 18.1655 12.8825 18.4116 13.2964ZM49.4295 8.77737C49.3177 8.90041 49.1946 9.07938 49.1499 9.16887C49.1163 9.25835 48.8591 9.68341 48.5906 10.1197C48.311 10.5447 48.132 10.9474 48.1767 10.9921C48.2215 11.0369 48.8143 11.0592 49.4743 11.0481L50.6935 11.0145L51.1745 10.3098C51.443 9.91831 51.6555 9.58274 51.6555 9.56037C51.6555 9.53799 51.7785 9.32547 51.9351 9.10175C52.0917 8.87804 52.1812 8.65433 52.1588 8.60958C52.1253 8.55365 51.5436 8.5201 50.8613 8.53128C49.7875 8.54247 49.6085 8.57603 49.4295 8.77737ZM11.3199 34.1577C11.2975 34.2248 11.264 35.0749 11.2528 36.0481L11.2192 37.8266L10.8501 38.151C10.5928 38.3859 10.3803 38.4754 10.0671 38.4754C9.42952 38.4754 9.22818 38.3859 8.94853 37.9832C8.72482 37.6476 8.70245 37.5022 8.70245 35.8579V34.1018L8.24384 34.1353L7.77404 34.1689L7.79641 35.9586C7.81878 37.9384 7.85234 38.1845 8.16554 38.576C8.57941 39.1241 8.97091 39.2584 10.0559 39.2584H11.0626L11.5436 38.7774C11.8233 38.4865 12.047 38.1398 12.0917 37.9273C12.1365 37.7147 12.17 36.7863 12.17 35.8467V34.1353L11.7673 34.0906C11.5436 34.0682 11.3423 34.0906 11.3199 34.1577ZM21.1745 34.0794C20.9955 34.1129 20.5928 34.3031 20.2796 34.5156C19.5078 35.019 19.1723 35.6901 19.1723 36.6856C19.1723 37.6924 19.5078 38.3523 20.302 38.878C20.8613 39.2472 20.9731 39.2807 21.7785 39.2919C22.9978 39.3031 23.6353 38.9899 24.2394 38.0839C24.4966 37.6812 24.5302 37.5358 24.5302 36.6297C24.5302 35.6454 24.519 35.6006 24.1499 35.1308C23.5906 34.4261 23.0537 34.1353 22.2148 34.0682C21.8233 34.0458 21.3646 34.0458 21.1745 34.0794ZM22.9754 35.2315C23.3221 35.5559 23.6801 36.283 23.6913 36.6633C23.6913 37.0771 23.2662 37.9496 22.9306 38.1957C22.7517 38.3299 22.3937 38.4306 21.991 38.453C21.4541 38.4977 21.2752 38.4642 20.9731 38.2516C20.4139 37.8713 20.1901 37.491 20.1342 36.8534C20.0783 36.1152 20.3244 35.5447 20.8837 35.1644C21.2304 34.9183 21.387 34.8848 21.9799 34.9183C22.528 34.9519 22.7405 35.019 22.9754 35.2315ZM57.528 34.1912C57.4385 34.2695 57.3378 34.4485 57.2931 34.5939C57.2259 34.8065 56.9911 35.3881 56.689 36.0704C56.6331 36.1935 56.4877 36.5402 56.3535 36.8534C56.2192 37.1554 56.0738 37.5134 56.0179 37.6364C55.4922 38.8109 55.3468 39.1577 55.3468 39.2024C55.3468 39.236 55.5705 39.2584 55.8501 39.2584C56.2304 39.2584 56.3535 39.2136 56.3535 39.0794C56.3535 38.9899 56.4653 38.7103 56.6107 38.4754L56.8568 38.0279H57.9978C59.2506 38.0279 59.2506 38.0279 59.5526 38.8669C59.6644 39.1689 59.7315 39.2024 60.2013 39.236C60.5034 39.2584 60.7159 39.236 60.6935 39.1801C60.604 38.9787 60.3468 38.3971 60.2125 38.0839C60 37.5917 59.7539 37.0212 59.5526 36.5514C59.2282 35.8243 59.0604 35.4105 58.8702 34.9519C58.7696 34.7058 58.6465 34.4261 58.6018 34.3367C58.4676 34.1018 57.7181 33.9899 57.528 34.1912ZM58.3445 35.981C58.4899 36.2718 58.6465 36.6073 58.7025 36.708C58.9262 37.1107 58.7248 37.2561 57.9866 37.2226C57.4385 37.2002 57.3043 37.1443 57.2707 36.9988C57.226 36.7528 57.8859 35.3098 58.0089 35.3881C58.0537 35.4105 58.2103 35.6789 58.3445 35.981ZM78.7696 34.1018C78.7472 34.1241 78.7248 35.2986 78.7248 36.708V39.2584L80.6488 39.236L82.5839 39.2024L82.6063 38.8445L82.6398 38.4754H81.3758C79.6533 38.4754 79.6197 38.4642 79.6197 37.8154C79.6197 37.5246 79.6756 37.2337 79.7539 37.1554C79.8434 37.066 80.2908 37.0212 81.0403 37.0212H82.1924V36.283L81.2416 36.3277C80.6264 36.3613 80.179 36.3277 79.9553 36.2382C79.6421 36.1152 79.6197 36.0592 79.6197 35.5559C79.6197 34.8959 79.6085 34.9071 81.3535 34.8624L82.5727 34.84V34.1689L80.6935 34.1129C79.6644 34.0794 78.792 34.0794 78.7696 34.1018ZM90.66 34.0906C90.3579 34.1129 90.123 34.236 89.8546 34.5156C89.4967 34.8736 89.4631 34.9631 89.4631 35.5559C89.4631 36.1599 89.4967 36.2494 89.7987 36.5067C89.9888 36.6633 90.3579 36.8422 90.6152 36.9094C90.8725 36.9765 91.1745 37.0771 91.2752 37.1331C91.387 37.2002 91.566 37.2449 91.6779 37.2449C91.8904 37.2449 92.3714 37.6812 92.3714 37.8713C92.3714 37.9384 92.2707 38.095 92.1477 38.2293C91.8233 38.576 90.8501 38.576 90.2461 38.2293L89.8098 37.972L89.5638 38.2181C89.2394 38.5425 89.34 38.7438 89.9776 39.0235C90.6488 39.3255 92.0805 39.3478 92.5615 39.0682C93.009 38.8221 93.2662 38.3299 93.2662 37.7483C93.2662 37.3344 93.1991 37.189 92.8859 36.8646C92.6286 36.6073 92.349 36.4619 92.047 36.406C91.7897 36.3613 91.566 36.283 91.5213 36.227C91.4877 36.1711 91.3423 36.1264 91.2081 36.1264C90.5705 36.1264 90.0783 35.2763 90.5705 35.0078C90.8949 34.84 91.8456 34.8736 92.1029 35.0637C92.2148 35.1532 92.3826 35.2315 92.472 35.2315C92.6622 35.2315 92.9195 34.9071 92.9307 34.6722C92.9307 34.2919 91.7562 33.9899 90.66 34.0906ZM2.55032 36.6856V39.2584H6.46531V38.4754H5.16777C3.63534 38.4754 3.44518 38.4082 3.44518 37.8154C3.44518 37.1443 3.66889 37.0212 4.92169 37.0212C6.05144 37.0212 6.18567 36.9653 6.06263 36.4955C6.0067 36.3053 5.90603 36.283 4.96643 36.3277C4.01565 36.3724 3.89261 36.3501 3.68008 36.1376C3.36688 35.8244 3.35569 35.1756 3.65771 35.0078C3.78075 34.9519 4.46308 34.8959 5.16777 34.8959H6.46531V34.1129H2.55032V36.6856ZM13.6801 36.6856V39.2695L14.1834 39.236L14.6868 39.2024L14.6532 38.5537C14.5973 37.7595 14.7315 37.5805 15.3467 37.5805C15.7942 37.5805 15.8165 37.6029 16.3646 38.4194L16.9239 39.2584H18.132L17.9195 39.0123C17.8076 38.878 17.6622 38.7103 17.5951 38.6431C17.5391 38.576 17.3825 38.3299 17.2595 38.1062C17.1365 37.8825 17.0022 37.6924 16.9575 37.6924C16.745 37.6924 16.9016 37.4015 17.1924 37.2226C17.7293 36.9205 17.9306 36.5067 17.9306 35.7237C17.9306 35.142 17.8859 34.9742 17.6622 34.7393C17.1476 34.1912 16.8456 34.1129 15.2013 34.1129H13.6801V36.6856ZM16.689 35.1308C16.9127 35.3098 16.9799 35.4552 16.9799 35.7908C16.9799 36.4955 16.4989 36.7975 15.4027 36.7975C14.7986 36.7975 14.6309 36.5738 14.6309 35.7908C14.6309 34.9966 14.7427 34.9071 15.7047 34.8959C16.2304 34.8959 16.4541 34.9519 16.689 35.1308ZM26.0403 34.1689C26.0403 34.2024 26.0291 35.3434 26.0291 36.708V39.2024H26.8568L26.868 38.5089C26.8792 38.1286 26.9239 37.7818 26.9687 37.7371C27.0134 37.6812 27.4161 37.6252 27.8635 37.6029C29.4072 37.5246 29.8993 37.0995 29.8993 35.8467C29.8993 34.4485 29.396 34.1129 27.349 34.1129C26.6219 34.1129 26.0403 34.1353 26.0403 34.1689ZM28.7136 35.1868C29.1611 35.5671 29.1834 36.104 28.7808 36.5179C28.5347 36.7528 28.3893 36.7975 27.7964 36.7975C27.3937 36.7975 27.0358 36.7416 26.9575 36.6633C26.8792 36.585 26.8233 36.2382 26.8233 35.8915C26.8233 35.0637 26.9799 34.8959 27.774 34.8959C28.255 34.8959 28.4452 34.9519 28.7136 35.1868ZM31.1857 36.5738V39.1129C31.1857 39.1689 32.047 39.2024 33.1096 39.2024H35.0336V38.5313L33.8702 38.5089C33.2215 38.4865 32.5839 38.453 32.4608 38.4194C32.17 38.3523 32.0246 37.7483 32.1924 37.312C32.2931 37.0212 32.3154 37.0212 33.4228 37.0212C34.3624 37.0212 34.5638 36.9877 34.6197 36.8422C34.6532 36.7416 34.6421 36.5738 34.5749 36.4843C34.4855 36.3389 34.2729 36.3053 33.4564 36.3389C32.5056 36.3613 32.4273 36.3501 32.2595 36.1152C32.0582 35.8132 32.0246 35.4217 32.1924 35.1085C32.3042 34.9183 32.4385 34.8959 33.6465 34.8959H34.9888V34.1129H31.1857V36.5738ZM38.1208 34.236C38.1208 34.3367 37.9754 34.6834 37.5615 35.623C37.5056 35.7461 37.3602 36.0928 37.2259 36.406C37.0917 36.708 36.9463 37.066 36.8904 37.189C36.8344 37.312 36.689 37.6588 36.5548 37.972C36.4318 38.274 36.2528 38.6655 36.1633 38.8333C35.9284 39.2472 35.9396 39.2584 36.4318 39.2584C36.8904 39.2584 37.1365 39.0235 37.2931 38.4306C37.3825 38.0615 37.5951 38.0056 38.8479 38.0503L39.8546 38.0839L40.1342 38.6655C40.4027 39.236 40.4251 39.2584 40.8948 39.2584C41.1521 39.2584 41.3647 39.2248 41.3647 39.1912C41.3647 39.1465 41.2528 38.878 41.1297 38.5984C40.9955 38.3188 40.8166 37.9161 40.7271 37.7259C40.6488 37.5246 40.5034 37.189 40.4027 36.9653C40.3132 36.7528 40.1678 36.406 40.0671 36.1823C39.9776 35.9698 39.8322 35.6342 39.7427 35.4328C39.6532 35.2315 39.4966 34.8512 39.396 34.5827C39.1946 34.1241 39.1834 34.1129 38.6577 34.1129C38.3557 34.1129 38.1208 34.1689 38.1208 34.236ZM38.8702 35.5447C38.9374 35.5895 39.038 35.7796 39.0828 35.9586C39.1275 36.1487 39.2394 36.406 39.3177 36.5402C39.6085 36.9765 39.4183 37.2226 38.7696 37.2673C37.9754 37.312 37.6846 37.01 38.0649 36.5067C38.1544 36.3948 38.2327 36.2382 38.2327 36.1599C38.2327 36.0928 38.2774 35.9027 38.3445 35.7461C38.4564 35.4552 38.6242 35.3881 38.8702 35.5447ZM42.4832 36.6856V39.2584H43.5123L43.4787 37.6588C43.4452 36.0704 43.4452 36.0481 43.8143 36.104C43.8702 36.1152 44.2841 36.6185 44.7315 37.2114C45.179 37.8154 45.66 38.4306 45.8054 38.5872C45.9508 38.7438 46.0962 38.9563 46.1298 39.0682C46.1745 39.2248 46.2864 39.2584 46.6331 39.236L47.0805 39.2024V34.1689L46.6219 34.1353L46.1745 34.1018V35.5447C46.1745 37.5358 46.1074 37.5693 45.0559 36.1599C44.5973 35.5559 44.2058 35.0414 44.1723 35.0078C44.1275 34.9742 43.9821 34.7617 43.8255 34.538C43.5682 34.1465 43.5011 34.1129 43.0201 34.1129H42.4832V36.6856ZM51.0962 36.6856V39.2584H51.9911V38.5537C51.9911 38.151 52.047 37.793 52.1253 37.7147C52.2036 37.6364 52.5951 37.5805 53.0761 37.5805C53.9709 37.5805 54.3624 37.4127 54.7987 36.8534C55.1566 36.406 55.1454 35.2763 54.7875 34.8176C54.34 34.2472 53.8814 34.1129 52.4161 34.1129H51.0962V36.6856ZM53.8814 35.2203C54.2617 35.6006 54.2506 36.1935 53.8479 36.529C53.6018 36.7528 53.4228 36.7975 52.8412 36.7975C52.0134 36.7975 51.9911 36.764 51.9911 35.802C51.9911 34.9742 52.1029 34.8624 52.9418 34.9183C53.4676 34.9519 53.6801 35.019 53.8814 35.2203ZM61.9463 34.1689C61.9463 34.2024 61.9351 35.3434 61.9351 36.708V39.2024H62.7852L62.7517 38.5537C62.6958 37.7483 62.83 37.5805 63.4676 37.5805C63.9262 37.5805 64.2953 37.7818 64.2953 38.0391C64.2953 38.1062 64.3624 38.2181 64.4407 38.2964C64.5078 38.3859 64.6532 38.5648 64.7427 38.6991C64.8322 38.8333 64.9664 39.0235 65.0224 39.1129C65.1119 39.2248 65.302 39.2584 65.6711 39.236L66.2081 39.2024L65.6376 38.4194C65.3356 37.9944 65.0783 37.6029 65.0783 37.5581C65.0783 37.5134 65.302 37.2673 65.5817 37.01C66.0738 36.5514 66.085 36.5402 66.085 35.8243C66.085 35.0078 65.9284 34.6834 65.3468 34.3478C65 34.1465 64.7651 34.1129 63.4452 34.1129C62.6175 34.1129 61.9463 34.1353 61.9463 34.1689ZM64.9553 35.2315C65.2796 35.623 65.2573 36.1376 64.8993 36.4731C64.6532 36.708 64.5078 36.7416 63.7919 36.7416C63.3445 36.7416 62.9307 36.708 62.8859 36.6521C62.8412 36.6073 62.7741 36.2718 62.7517 35.925C62.6846 34.9966 62.8412 34.8624 63.915 34.9183C64.6085 34.9519 64.7539 34.9966 64.9553 35.2315ZM67.17 34.1912C67.1365 34.2472 67.1253 34.4038 67.1365 34.5604C67.1477 34.8176 67.1924 34.84 67.8188 34.8959C68.1879 34.9295 68.557 34.9966 68.6353 35.0414C68.736 35.1085 68.7696 35.6678 68.7696 37.2002V39.2584H69.7763V37.1443C69.7763 34.7393 69.7092 34.8959 70.7942 34.8959H71.4541V34.1129H69.34C68.1656 34.1129 67.1924 34.1465 67.17 34.1912ZM72.5727 36.6856V39.2584H73.4676V37.8154C73.4676 36.3165 73.5123 36.0145 73.736 36.0145C73.8031 36.0257 74.4072 36.7528 75.0783 37.6364C76.2752 39.236 76.2975 39.2584 76.7226 39.2584H77.1588V34.1129H76.264V35.6789C76.264 36.8646 76.2304 37.2449 76.1298 37.2449C75.9172 37.2337 75.6823 37.0212 75.3468 36.5179C75.179 36.2718 74.8658 35.8691 74.6421 35.623C74.4295 35.3769 74.2506 35.142 74.2506 35.1085C74.2506 35.0637 74.1051 34.8624 73.915 34.661C73.736 34.4485 73.5794 34.2472 73.5794 34.1912C73.5794 34.1465 73.3557 34.1129 73.0761 34.1129H72.5727V36.6856ZM83.9821 36.6856V39.2584H84.877V38.5984C84.877 37.6588 84.9217 37.5805 85.4922 37.5805C85.9172 37.5805 86.0179 37.6252 86.2975 37.9944C86.4765 38.2293 86.7338 38.5984 86.868 38.8333C87.0917 39.1912 87.1812 39.236 87.6286 39.2807C87.9083 39.3031 88.1656 39.2807 88.1879 39.236C88.2215 39.1912 88.009 38.8445 87.7293 38.453C87.4497 38.0727 87.226 37.6812 87.226 37.5693C87.226 37.4686 87.349 37.2897 87.5056 37.1778C88.2327 36.6409 88.4452 35.5895 87.9866 34.8959C87.528 34.2248 87.2371 34.1353 85.5257 34.1241L83.9821 34.1129V36.6856ZM86.7114 35.0078C86.8792 35.0637 87.0805 35.2874 87.1812 35.5C87.3602 35.8691 87.3602 35.8915 87.1141 36.2382C86.9799 36.4284 86.745 36.6409 86.5884 36.6968C86.1521 36.8646 85.2461 36.8199 85.0559 36.6185C84.8434 36.406 84.8099 35.2315 85.0112 35.0302C85.1678 34.8736 86.3087 34.8512 86.7114 35.0078Z" fill="#CF1A1A"/>
</svg>
