<svg width="100" height="33" viewBox="0 0 100 33" fill="none" xmlns="http://www.w3.org/2000/svg">
<path d="M42.7941 17.323C42.7941 22.0589 39.0892 25.5487 34.5424 25.5487C29.9956 25.5487 26.2906 22.0589 26.2906 17.323C26.2906 12.5536 29.9956 9.09717 34.5424 9.09717C39.0892 9.09717 42.7941 12.5536 42.7941 17.323ZM39.1819 17.323C39.1819 14.3634 37.0346 12.3385 34.5424 12.3385C32.0501 12.3385 29.9028 14.3634 29.9028 17.323C29.9028 20.2528 32.0501 22.3074 34.5424 22.3074C37.0346 22.3074 39.1819 20.2491 39.1819 17.323Z" fill="#EA4335"/>
<path d="M60.5956 17.323C60.5956 22.0589 56.8907 25.5487 52.3439 25.5487C47.7971 25.5487 44.0921 22.0589 44.0921 17.323C44.0921 12.5573 47.7971 9.09717 52.3439 9.09717C56.8907 9.09717 60.5956 12.5536 60.5956 17.323ZM56.9834 17.323C56.9834 14.3634 54.8361 12.3385 52.3439 12.3385C49.8517 12.3385 47.7044 14.3634 47.7044 17.323C47.7044 20.2528 49.8517 22.3074 52.3439 22.3074C54.8361 22.3074 56.9834 20.2491 56.9834 17.323Z" fill="#FBBC05"/>
<path d="M77.6554 9.59413V24.362C77.6554 30.4367 74.0728 32.9178 69.8376 32.9178C65.8508 32.9178 63.4513 30.2513 62.5464 28.0706L65.6913 26.7615C66.2513 28.1003 67.6235 29.6802 69.8339 29.6802C72.5449 29.6802 74.2249 28.0076 74.2249 24.8589V23.6759H74.0988C73.2903 24.6735 71.7327 25.545 69.7671 25.545C65.6542 25.545 61.8862 21.9625 61.8862 17.3526C61.8862 12.7094 65.6542 9.09717 69.7671 9.09717C71.729 9.09717 73.2866 9.9687 74.0988 10.9367H74.2249V9.59784H77.6554V9.59413ZM74.4808 17.3526C74.4808 14.4562 72.5486 12.3385 70.0898 12.3385C67.5975 12.3385 65.5096 14.4562 65.5096 17.3526C65.5096 20.2194 67.5975 22.3074 70.0898 22.3074C72.5486 22.3074 74.4808 20.2194 74.4808 17.3526Z" fill="#4285F4"/>
<path d="M83.3111 0.938232V25.0444H79.7879V0.938232H83.3111Z" fill="#34A853"/>
<path d="M97.0405 20.0306L99.8442 21.8997C98.9393 23.2385 96.7586 25.5453 92.9907 25.5453C88.3178 25.5453 84.8279 21.9331 84.8279 17.3195C84.8279 12.4278 88.3474 9.09375 92.5864 9.09375C96.8551 9.09375 98.943 12.4909 99.6254 14.3267L100 15.2612L89.0039 19.8155C89.8457 21.4658 91.1549 22.3077 92.9907 22.3077C94.8302 22.3077 96.1059 21.4028 97.0405 20.0306ZM88.4105 17.0711L95.761 14.0188C95.3568 12.9915 94.1403 12.2758 92.7088 12.2758C90.873 12.2758 88.3178 13.8964 88.4105 17.0711Z" fill="#EA4335"/>
<path d="M12.9543 15.1832V11.6934H24.7144C24.8294 12.3016 24.8887 13.0211 24.8887 13.7999C24.8887 16.4182 24.173 19.6558 21.8662 21.9626C19.6225 24.2991 16.7557 25.5452 12.958 25.5452C5.919 25.5452 0 19.8116 0 12.7726C0 5.73357 5.919 0 12.958 0C16.8521 0 19.6262 1.52796 21.7104 3.51951L19.2479 5.98205C17.7533 4.58018 15.7284 3.48984 12.9543 3.48984C7.81412 3.48984 3.79395 7.6324 3.79395 12.7726C3.79395 17.9128 7.81412 22.0553 12.9543 22.0553C16.2884 22.0553 18.1872 20.7165 19.4037 19.5001C20.3902 18.5136 21.0392 17.1043 21.2951 15.1795L12.9543 15.1832Z" fill="#4285F4"/>
</svg>
