<svg width="100" height="36" viewBox="0 0 100 36" fill="none" xmlns="http://www.w3.org/2000/svg">
<path fill-rule="evenodd" clip-rule="evenodd" d="M0 0H100V35.2542H0V0ZM1.01717 17.7121C1.01717 8.7724 23.023 1.52549 50.1697 1.52549C77.3159 1.52549 99.3217 8.7724 99.3217 17.7121C99.3217 26.6518 77.3159 33.8987 50.1697 33.8987C23.0235 33.8987 1.01717 26.6518 1.01717 17.7121C1.01717 26.6518 1.01717 17.7121 1.01717 17.7121Z" fill="#2360A5"/>
<path fill-rule="evenodd" clip-rule="evenodd" d="M1.01718 17.7122C1.01718 8.77253 23.023 1.52563 50.1697 1.52563C77.3159 1.52563 99.3217 8.77253 99.3217 17.7122C99.3217 26.6519 77.3159 33.8988 50.1697 33.8988C23.0235 33.8988 1.01718 26.6519 1.01718 17.7122C1.01718 26.6519 1.01718 17.7122 1.01718 17.7122Z" fill="#F6D33C"/>
<path fill-rule="evenodd" clip-rule="evenodd" d="M14.4361 11.0388H23.1732C23.1732 11.0388 22.9402 11.4054 22.9402 11.8635V23.1112C22.9402 23.7221 23.2021 24.2417 23.2021 24.2417H14.4072C14.4072 24.2417 14.6691 23.7216 14.6691 23.2021V11.9549C14.6691 11.5273 14.4361 11.0388 14.4361 11.0388ZM27.523 11.0687H35.8309C35.8309 11.0687 35.5979 11.46 35.5979 11.8218V15.8574L38.542 12.0928C38.542 12.0928 38.7173 11.8218 38.7173 11.5508V11.1291H47.1706L43.5851 16.1284C43.5851 16.1284 43.4103 16.339 43.4103 16.4897C43.4103 16.6404 43.5562 16.851 43.5562 16.851L48.1621 24.169H37.9877C37.9877 24.169 38.163 23.8985 38.163 23.627C38.163 23.3565 37.9877 23.0246 37.9877 23.0246L35.568 19.0794V23.3565C35.568 23.7179 35.8304 24.1989 35.8304 24.1989H27.523C27.523 24.1989 27.7561 23.8681 27.7561 23.5067V11.8213C27.7561 11.4605 27.523 11.0687 27.523 11.0687ZM50.6364 11.1601H65.4973V15.1518C65.4973 15.1518 65.1766 14.8562 64.7699 14.8562H58.6791V15.9498H63.9825V19.4685C63.9825 19.4685 63.633 19.1729 63.254 19.1729H58.6209V20.3852H64.8565C65.206 20.3852 65.4108 19.8234 65.4108 19.8234V24.1989H50.6364C50.6364 24.1989 50.8993 23.8146 50.8993 23.5484V12.1361C50.8999 11.6625 50.6364 11.1601 50.6364 11.1601ZM72.0724 11.0168H83.9545C83.9545 11.0168 83.7215 11.5669 83.7215 11.8726C83.7215 12.1783 83.9251 12.7283 83.9251 12.7283L88.6721 24.2203H79.7608C79.7608 24.2203 79.9644 23.8841 79.8474 23.6094C79.602 22.999 79.3595 22.3876 79.1199 21.7749H75.4505C75.4505 21.7749 74.7219 23.395 74.7219 23.7013C74.7219 24.006 74.956 24.2513 74.956 24.2513H67.6161L72.2178 12.2393C72.2178 12.2393 72.3931 11.9945 72.3931 11.6893C72.3931 11.3841 72.0724 11.0168 72.0724 11.0168ZM77.1107 16.8852L76.2367 19.2387H78.1588L77.1107 16.8852Z" fill="#2360A5"/>
</svg>
