<svg width="22" height="22" viewBox="0 0 22 22" fill="none" xmlns="http://www.w3.org/2000/svg">
<path fill-rule="evenodd" clip-rule="evenodd" d="M0 4C0 1.79086 1.79086 0 4 0H18C20.2091 0 22 1.79086 22 4V18C22 20.2091 20.2091 22 18 22H4C1.79086 22 0 20.2091 0 18V4ZM4 2C2.89543 2 2 2.89543 2 4V18C2 19.1046 2.89543 20 4 20H18C19.1046 20 20 19.1046 20 18V4C20 2.89543 19.1046 2 18 2H4Z" fill="white"/>
<path fill-rule="evenodd" clip-rule="evenodd" d="M11 8C9.34315 8 8 9.34315 8 11C8 12.6569 9.34315 14 11 14C12.6569 14 14 12.6569 14 11C14 9.34315 12.6569 8 11 8ZM6 11C6 8.23858 8.23858 6 11 6C13.7614 6 16 8.23858 16 11C16 13.7614 13.7614 16 11 16C8.23858 16 6 13.7614 6 11Z" fill="white"/>
<path fill-rule="evenodd" clip-rule="evenodd" d="M17.5 3.5C16.9477 3.5 16.5 3.94772 16.5 4.5C16.5 5.05228 16.9477 5.5 17.5 5.5C18.0523 5.5 18.5 5.05228 18.5 4.5C18.5 3.94772 18.0523 3.5 17.5 3.5ZM15.5 4.5C15.5 3.39543 16.3954 2.5 17.5 2.5C18.6046 2.5 19.5 3.39543 19.5 4.5C19.5 5.60457 18.6046 6.5 17.5 6.5C16.3954 6.5 15.5 5.60457 15.5 4.5Z" fill="white"/>
</svg>
