<svg width="100" height="60" viewBox="0 0 100 60" fill="none" xmlns="http://www.w3.org/2000/svg">
<path fill-rule="evenodd" clip-rule="evenodd" d="M40.3096 16.2061C40.7306 16.2061 41.0699 15.8641 41.0699 15.4436C41.0726 15.342 41.0549 15.2408 41.0179 15.1461C40.9809 15.0513 40.9253 14.965 40.8543 14.8921C40.7834 14.8193 40.6985 14.7613 40.6048 14.7218C40.5111 14.6822 40.4105 14.6619 40.3088 14.6619C40.2071 14.6619 40.1064 14.6822 40.0127 14.7218C39.919 14.7613 39.8342 14.8193 39.7632 14.8921C39.6923 14.965 39.6366 15.0513 39.5996 15.1461C39.5626 15.2408 39.5449 15.342 39.5476 15.4436C39.5476 15.8641 39.8864 16.2061 40.3096 16.2061ZM49.5128 31.8312C50.6435 31.8312 51.4044 31.6787 52.0171 31.4526C52.6265 31.2261 53.0949 30.9532 53.4358 30.6738C53.7594 30.4091 53.9647 30.1406 54.31 29.9642C54.6144 29.8068 55.0431 29.7697 55.524 29.7697C56.2146 29.7697 56.9918 29.9832 57.5598 30.2958L57.6415 29.2387C57.263 29.0519 55.9286 28.5841 54.7697 28.5841C53.4527 28.5841 52.9549 28.9392 52.4686 29.3781C51.9027 29.8912 51.1876 30.5012 49.2541 30.5012C48.7389 30.5012 47.5026 30.3617 47.0004 30.3617C46.6954 30.3617 46.4612 30.438 46.4612 30.438C46.5533 30.7272 46.7504 31.524 46.7504 31.524C47.2134 31.5817 48.0211 31.8312 49.5128 31.8312ZM43.5687 28.6962C43.9603 28.6962 45.0991 28.87 46.4144 28.9963C47.1616 29.0666 47.9612 29.1221 48.716 29.1221C50.1936 29.1221 51.8117 28.4196 53.2425 27.6859L52.9626 26.668C52.2943 27.034 51.0226 27.4409 49.9627 27.6097C49.7018 27.6522 48.9442 27.6625 48.7286 27.6282C48.3713 27.5727 47.9426 27.4441 47.4819 27.3603C46.8349 27.2388 46.1279 27.2099 45.7091 27.1914C45.2467 27.1707 44.4178 27.2491 44.0104 27.2758C42.5137 27.3652 41.5247 27.7175 40.5781 28.3564C40.0999 28.6799 39.4894 29.2082 39.0182 29.8476C39.2606 29.8656 39.9518 30.0584 39.9518 30.0584C40.9724 29.1902 42.5061 28.6962 43.5687 28.6962Z" fill="#63513D"/>
<path fill-rule="evenodd" clip-rule="evenodd" d="M25.5336 29.1879C26.2623 29.1879 26.5548 29.4243 26.9567 29.6661C27.2383 29.8398 27.4594 30.0315 27.6697 30.2216C28.1195 30.6235 27.991 30.9923 27.6381 31.2706C27.4567 31.4149 27.3015 31.5886 26.844 31.886C26.6234 32.0314 26.2422 32.2651 25.9818 32.3751C25.5238 32.5646 25.3245 32.5859 25.1584 32.5859C24.9901 32.5859 24.7221 32.5597 24.5718 32.4099L23.4068 33.1223C23.7565 33.3952 24.1535 33.4878 24.8218 33.4878C25.5766 33.4878 26.179 33.3249 26.923 33.0336C27.8875 32.6518 28.9719 31.9018 29.3319 31.6965C30.0688 31.2755 30.8128 31.0021 31.6096 31.0021C32.3116 31.0021 33.103 31.4176 33.9896 31.8413C35.0364 32.3435 36.3147 32.8353 37.49 32.8353C38.1948 32.8353 38.9839 32.7324 39.8101 32.5641C41.2774 32.2645 42.8552 31.77 44.3992 31.2466L43.8976 30.3452C43.5213 30.4841 42.2321 30.8468 40.846 31.1551C39.6969 31.4073 38.5313 31.6355 37.9268 31.6355C37.4328 31.6355 36.8511 31.5995 36.3305 31.4389C35.4465 31.1731 34.6524 30.8942 34.6524 30.184C34.6524 29.6928 34.8627 29.3453 35.4574 29.1062C36.4198 28.7195 37.9192 28.7435 38.7078 28.7435C38.8554 28.5855 39.4523 27.8677 39.4523 27.8677C38.8202 27.7404 38.1772 27.6753 37.5325 27.6733C36.544 27.6733 35.6306 27.7996 34.8736 28.1177C34.1715 28.4129 33.6193 28.8388 33.2195 29.4145C33.0588 29.6432 32.8933 29.8611 32.652 29.8611C32.2517 29.8611 31.5573 29.5348 30.8318 29.5348C30.5159 29.5348 30.248 29.6002 29.9691 29.6002C29.235 29.6002 28.278 29.0664 27.4257 28.6117C26.8892 28.3252 26.3369 28.0567 25.6954 28.0567C25.4296 28.0567 25.0647 28.1226 24.7406 28.2593C24.1176 28.5196 23.4858 28.9406 23.1677 29.2059L23.7385 29.598C24.0713 29.4243 24.6769 29.1879 25.5336 29.1879ZM77.0605 37.3748C74.3172 35.0612 71.6632 32.5298 69.7918 30.4601C66.5599 26.8917 62.1571 20.0821 60.6533 16.2288C60.0978 14.8111 58.9514 15.2926 59.5385 16.7342C60.9583 20.2166 64.2327 25.3373 67.6514 29.5588C66.8546 29.2059 65.8666 28.732 65.3323 28.4962C65.1504 28.7936 64.7005 29.3823 64.2376 29.866C63.7017 30.4237 63.1494 30.8757 62.9784 31.0337C62.6021 31.3839 62.3265 31.41 62.0732 31.0211C61.9583 30.8365 61.7138 30.5059 61.5869 29.9319L60.8603 29.012C60.4709 28.5229 58.6469 26.0274 58.0881 25.1881C57.531 24.3521 56.8082 23.4572 55.6373 23.4572C54.1885 23.4572 53.6885 25.0617 53.5758 26.5262L54.5376 26.108C54.762 25.2006 55.207 24.7273 55.6378 24.7273C55.945 24.7273 56.3219 25.1745 56.3219 25.5083C56.1824 25.9005 55.9292 26.7103 55.8061 27.3361L56.7538 27.6575C56.7538 27.1967 56.9471 26.3601 57.2134 25.9266C57.2134 25.9266 57.4759 26.1499 57.574 26.3318C57.6366 26.4495 58.105 27.1651 58.6475 28.1171C59.1316 28.9668 59.6697 30.0163 60.1643 30.8523C60.4034 31.2548 60.6779 31.6153 60.8609 31.8991C61.1054 32.2732 61.3249 32.5352 61.5574 32.6676C61.7753 32.7879 62.0106 32.7912 62.2001 32.7912C62.8128 32.7912 63.0939 32.588 63.5094 32.234C64.2882 31.5625 64.9592 30.6295 65.6531 29.793L67.2892 30.5315C67.9218 30.8324 68.5602 31.121 69.2041 31.3969C70.5989 32.9807 72.1604 34.5324 73.7987 36.0078L74.9114 36.9887C75.2147 37.2512 75.5186 37.5088 75.8274 37.7643L77.0605 37.3748Z" fill="#63513D"/>
<path fill-rule="evenodd" clip-rule="evenodd" d="M83.2013 36.8995C80.3991 30.7658 76.707 23.2226 73.5487 18.6019L72.8112 17.5655C71.7568 16.1434 70.6158 14.9643 69.4977 13.8205L68.6295 12.966C66.4412 10.8457 63.9854 8.72602 62.1141 7.21575C60.4633 5.88575 59.2896 2.81836 55.5082 2.81836C52.0998 2.81836 50.9343 5.13524 50.5531 6.49302C50.2998 7.38404 50.1903 7.69176 49.9529 8.02617L47.788 10.6039L50.3418 10.3986L49.0477 12.5472C49.7895 12.3925 54.268 11.4928 55.189 12.9393C56.3071 14.6887 55.5441 16.5873 57.6344 20.5669L58.5385 22.1399C59.5788 23.813 60.8107 25.4561 61.9055 26.7529L60.8587 29.0121L61.5852 29.932L63.2126 26.5002C62.382 25.7584 59.8958 22.4154 58.868 20.5561C56.5321 16.327 57.4498 14.1517 56.0245 12.2133C54.7043 10.4144 50.9283 11.264 50.9283 11.264L52.321 9.31042L49.9104 9.60452L51.0253 8.26363C51.2627 7.91669 51.3177 7.70646 51.4147 7.37151C51.888 5.65482 53.1292 3.95284 55.4858 3.95284C58.3474 3.95284 59.1654 6.14935 61.1544 7.89818C63.1679 9.67097 67.3899 13.0793 71.2525 17.487C74.3673 21.0402 78.3594 29.3013 81.4263 35.8216C78.0735 34.1877 72.3951 28.5704 70.0167 24.362L68.8942 24.2307C71.448 29.0752 76.9287 34.716 82.3494 37.7872L83.2013 36.8995Z" fill="#63513D"/>
<path fill-rule="evenodd" clip-rule="evenodd" d="M75.4369 16.6504C76.3307 16.0083 77.3889 15.4849 78.5038 15.0617C79.19 15.8928 80.8076 16.621 82.0908 16.792L81.8854 18.1498C80.4623 17.4314 77.9466 16.7 75.4369 16.6504L74.3117 17.6177C77.7168 17.6809 79.8844 18.3704 82.6909 19.5511L83.2481 15.9663C82.1354 15.8138 80.3811 15.4958 79.7739 14.6331C82.3407 13.8515 85.0046 13.5569 86.5775 13.5787V9.16221C85.8754 9.57287 84.9915 9.95684 84.1576 10.215C83.1375 10.5276 82.21 10.6649 81.9546 10.215C81.6725 9.72046 83.0798 8.83924 84.5302 8.06858L81.2656 5.35684C80.7711 6.02239 79.6475 7.8845 78.5021 9.11483C77.6885 9.98842 76.8503 10.5614 76.3715 10.2041C76.1205 10.0146 76.1107 9.46775 76.3182 8.77879C76.7152 7.45532 77.7593 5.61718 78.3954 4.8073L73.8831 4.38085C73.8831 6.22499 73.0171 8.25539 71.9513 9.89638C71.0319 11.3086 69.6981 12.3353 68.6301 12.9659L69.4982 13.8205C70.8184 12.9028 72.1043 11.7797 73.0988 10.1801C73.8989 8.89425 74.6423 7.33986 74.9212 5.51969L76.4837 5.70105C75.834 6.89217 75.0998 8.74175 75.0443 9.95139C75.0835 10.7743 75.242 10.9214 75.6657 11.2345C76.4494 11.8211 77.42 11.4268 78.3453 10.6349C79.3654 9.76403 80.3686 8.30441 81.3865 6.98367L82.7056 8.08383C81.0336 9.11428 80.5603 10.2166 81.0707 10.9475C81.2694 11.2313 81.6992 11.4448 82.2324 11.4606C82.7612 11.4736 83.3875 11.3179 84.0716 11.155C84.5525 11.039 85.0737 10.8713 85.5546 10.7237V12.4807C81.7547 12.7519 75.2692 14.29 72.8123 17.5643L73.5498 18.6007C73.7627 18.2511 74.0198 17.9243 74.3123 17.6166L75.4369 16.6504ZM25.7471 8.01848L26.2574 8.4019C27.594 7.31317 29.156 5.33288 30.0372 3.46805L29.5819 3.14453C28.7295 3.92608 26.6964 6.47389 25.7471 8.01848Z" fill="#63513D"/>
<path fill-rule="evenodd" clip-rule="evenodd" d="M24.9634 6.82686C24.214 4.18157 26.136 2.59777 28.143 2.74482C28.8956 1.29554 30.0759 1.00634 31.3307 1.75848C32.4984 2.46106 32.4009 4.24638 31.4277 5.08294C31.7751 6.67382 30.3629 8.94114 28.1696 8.8284C28.43 11.0244 25.7362 12.2738 24.1034 10.8397C22.7462 9.64916 23.0299 7.66615 24.9634 6.82686ZM24.0348 6.4222C23.3382 6.5747 22.9749 6.92435 22.6645 7.67976C22.8725 5.96198 21.731 4.31555 19.8503 4.4419C20.0344 1.37288 16.9943 -0.454916 14.3059 1.03902C12.7178 -0.320935 10.9423 -0.0448048 9.87424 1.22038C8.8536 2.43002 8.88791 4.47077 10.9504 5.56004C10.4292 7.67976 12.3709 9.78641 14.6534 9.29679C14.7847 9.94926 15.2634 10.2989 15.8946 10.5593C14.9453 10.6148 14.5559 11.5587 14.5559 11.5587C11.5288 10.7831 9.96683 12.795 9.91618 14.9065C7.70714 15.5775 7.08898 18.3388 8.78061 19.9515C10.5294 21.6241 12.6154 20.9378 13.5249 19.2277C15.4764 19.9695 17.565 18.7647 17.6195 16.6085C19.7948 16.8133 20.6286 15.0988 20.426 13.2922L19.7365 13.2367C19.4397 14.9147 18.6423 15.638 16.8222 15.638C16.7432 17.2501 15.0205 18.6493 13.0691 18.2789C12.5217 19.5675 10.915 19.988 9.81815 18.9101C8.72397 17.8318 9.0867 15.8041 11.0174 15.4381C10.9385 13.4605 12.8632 12.2351 15.612 12.3664C16.393 11.3985 17.0242 10.9879 18.1946 11.1012L18.2055 10.5386C17.1086 10.391 15.8723 9.35179 15.7808 8.23475C13.44 8.42101 11.8377 7.07957 11.9172 4.97564C10.4129 4.27089 10.6836 2.72685 11.1705 2.14082C12.0092 1.12834 13.1818 1.20949 14.1295 2.02753C16.8042 1.00471 18.9577 3.11626 18.9577 5.42279C18.9577 5.42279 20.2076 5.39883 20.9097 6.13027C21.8383 7.10081 21.8383 7.945 22.0588 8.88613C22.2669 9.77497 22.714 10.9563 23.8055 11.8081C25.7357 13.3129 28.7268 12.905 29.0318 9.73086C31.6008 9.95906 33.2898 7.94228 32.4429 5.47562C34.2418 4.19192 33.884 1.54607 32.1929 0.522704C31.8132 0.271989 31.3838 0.106277 30.9342 0.0369132C30.4845 -0.0324503 30.0252 -0.00382607 29.5876 0.120824C29.15 0.245474 28.7446 0.463207 28.399 0.759117C28.0534 1.05503 27.7758 1.42212 27.5852 1.83528C24.9525 1.23019 22.8066 3.85533 24.0348 6.4222ZM35.9122 21.8C36.1437 20.8741 34.9231 20.7369 34.7548 21.5898C34.5762 22.5026 33.4662 24.0597 32.4145 25.0351L32.7903 25.4403C34.171 24.4088 35.6154 22.9813 35.9122 21.8ZM42.0426 6.50607C42.2433 6.49855 42.4332 6.41355 42.5725 6.26892C42.7118 6.1243 42.7896 5.93131 42.7896 5.73051C42.7896 5.52971 42.7118 5.33672 42.5725 5.1921C42.4332 5.04747 42.2433 4.96247 42.0426 4.95495C41.614 4.95495 41.2698 5.30461 41.2698 5.73051C41.2698 6.15914 41.614 6.50607 42.0426 6.50607ZM53.4625 7.21355C53.4684 6.97353 53.5678 6.7453 53.7396 6.57761C53.9115 6.40991 54.142 6.31605 54.3821 6.31605C54.6222 6.31605 54.8528 6.40991 55.0246 6.57761C55.1965 6.7453 55.2959 6.97353 55.3018 7.21355C55.3021 7.33456 55.2786 7.45446 55.2326 7.56637C55.1866 7.67829 55.1189 7.78003 55.0335 7.86577C54.9481 7.95152 54.8467 8.01958 54.7349 8.06607C54.6232 8.11256 54.5034 8.13657 54.3824 8.13671C53.8759 8.13671 53.4625 7.72388 53.4625 7.21355ZM52.0051 23.759C46.0195 23.2994 40.0601 23.6752 40.0601 23.6752L40.48 22.5783C46.2031 22.1627 52.0895 22.5783 52.0895 22.5783L52.0051 23.759Z" fill="#63513D"/>
<path fill-rule="evenodd" clip-rule="evenodd" d="M15.8342 27.9254C15.8342 27.9254 16.1735 28.3785 16.7023 28.9411C16.8815 29.1938 17.0781 29.3747 17.3276 29.6094C18.425 30.6796 20.0393 31.4819 21.7043 31.8026C22.1776 31.8931 22.5986 31.9633 23.067 31.9633C23.7772 31.9633 24.4313 31.5821 24.8495 31.2079L24.1976 30.4476C23.9874 30.5102 23.5506 30.5102 23.2614 30.5102C20.847 30.5102 17.7834 28.9302 17.0781 27.0992C17.0068 26.9205 16.9229 26.8209 16.9943 26.652C17.0623 26.4837 17.1522 26.1292 17.2018 25.8029C17.3439 25.9658 17.6353 26.2103 18.0062 26.4494C18.9059 27.0257 20.6156 27.8225 20.9494 28.0359C21.6499 27.8356 22.3283 27.565 22.9744 27.2283C23.4765 26.9679 24.1633 26.7337 24.9574 26.7337C26.722 26.7337 28.7497 27.738 30.6543 28.677L31.956 28.1667C30.2649 26.9755 26.5886 25.3106 24.5424 25.3106C23.3376 25.3106 22.2037 26.1945 21.3971 26.1945C20.4053 26.1945 17.565 24.8084 17.565 23.6538C17.565 22.765 19.4032 22.2595 22.3589 21.8963C21.8433 22.6568 21.36 23.4387 20.9102 24.2398L21.6623 24.6581C26.2912 17.9433 31.1041 13.5835 35.1546 10.9295C36.6273 9.96385 36.9617 9.39906 37.4742 8.3441C38.729 5.77724 39.9125 3.80184 41.9718 3.80184C42.9315 3.80184 43.7179 4.34376 44.2576 5.01202L45.7461 5.45917L44.2386 6.482L45.7804 7.09743C43.768 7.66276 41.0198 9.62236 39.9049 12.497C37.7612 12.6102 36.7275 14.3487 36.0282 15.8056C35.5544 16.787 34.8028 17.1786 33.7059 17.9232L24.94 24.0432L26.1469 24.2115L34.2445 18.7777C35.8441 17.6999 36.6012 16.9052 36.9857 16.1368C37.7351 14.6325 38.5455 13.5149 40.1342 13.5149C40.9152 13.5149 41.7485 13.8487 42.4168 14.4827L43.8394 14.9456L42.2877 15.8949L43.5894 16.6977C39.8706 17.8632 37.569 20.5298 36.233 25.6265L37.2166 25.8476C37.7084 24.162 38.1975 22.613 39.0678 21.2449C41.2191 21.2215 43.4004 21.1425 45.5381 21.1425C51.2453 21.1425 55.9842 21.3843 58.5407 22.1392L57.6366 20.5663C54.902 20.0979 50.9327 19.8588 45.5386 19.8588C43.7321 19.8588 41.8983 19.9241 40.0787 19.9454C41.2545 18.7014 42.9429 17.6519 45.5468 16.8448L43.7005 15.8269L45.7516 14.6853L42.956 13.6434C42.4669 13.2044 41.8591 12.8019 41.0944 12.607C41.9909 9.85329 45.0392 8.24389 47.9639 7.13392L45.9155 6.29464L47.9797 5.16398L44.8001 4.14823C43.969 3.17007 43.1722 2.7251 41.9462 2.7251C38.9954 2.7251 37.7541 5.28924 36.5864 7.56201C35.9683 8.76129 35.5816 9.26617 34.5348 9.95023C32.2648 11.436 29.3744 13.7082 26.6136 16.6198C25.172 15.579 22.2233 12.5324 21.4271 10.8707C21.1112 11.2623 20.7985 12.1152 20.7985 12.1152C21.1014 12.4327 24.5702 15.9439 25.8609 17.4324C25.7634 17.5403 25.667 17.6481 25.5696 17.7587C24.1938 18.0321 20.6226 18.3768 19.407 18.2113L18.7235 19.4242C19.6303 19.3348 23.1813 18.916 24.654 18.8294C24.2026 19.3778 23.765 19.9373 23.3415 20.5074C18.7785 21.0281 15.7274 21.9643 15.7274 23.6533C15.7274 23.9321 15.8402 24.2475 15.8402 24.5443C15.8402 25.2518 15.5744 25.5127 15.0722 25.828C14.746 26.036 14.7248 26.1782 14.8647 26.3726C15.6218 27.5959 13.2706 28.2032 14.9089 30.3915L16.2977 30.4754C16.2971 30.4759 14.9426 29.6878 15.8342 27.9254ZM14.0342 3.63028L13.5821 4.09322C14.2319 5.02183 17.1092 7.59959 18.5683 8.55706L19.1047 7.89151C18.1478 6.76575 15.4279 4.33831 14.0342 3.63028ZM12.0484 16.6237L12.4743 17.0888C13.5712 16.5578 15.6327 15.0322 16.7481 13.8885L16.4409 13.4332C15.1305 13.9805 13.1056 15.4794 12.0484 16.6237Z" fill="#63513D"/>
<path fill-rule="evenodd" clip-rule="evenodd" d="M75.5905 35.6283C75.5907 35.4379 75.5534 35.2493 75.4807 35.0733C75.408 34.8974 75.3013 34.7374 75.1668 34.6027C75.0323 34.4679 74.8725 34.361 74.6966 34.2881C74.5207 34.2151 74.3322 34.1775 74.1418 34.1774L71.9965 34.1763C71.8058 34.1767 71.617 34.2146 71.441 34.288C71.2649 34.3613 71.1051 34.4686 70.9705 34.6038C70.836 34.7389 70.7294 34.8992 70.6569 35.0756C70.5843 35.252 70.5472 35.4409 70.5477 35.6316L70.5488 58.0733C70.5484 58.2638 70.5856 58.4526 70.6582 58.6287C70.7308 58.8049 70.8374 58.965 70.972 59.0998C71.1066 59.2347 71.2664 59.3417 71.4424 59.4147C71.6184 59.4877 71.807 59.5253 71.9976 59.5253H74.1429C74.3334 59.5249 74.522 59.4869 74.6979 59.4136C74.8737 59.3403 75.0334 59.2331 75.1679 59.098C75.3023 58.963 75.4088 58.8028 75.4813 58.6266C75.5539 58.4504 75.591 58.2617 75.5905 58.0711V35.6283ZM78.3251 36.2253V37.2922C78.3255 37.3973 78.3466 37.5014 78.3871 37.5984C78.4277 37.6954 78.487 37.7834 78.5616 37.8575C78.6362 37.9316 78.7246 37.9903 78.8219 38.0302C78.9192 38.0701 79.0233 38.0904 79.1285 38.0901H93.9328C94.607 38.0901 95.1549 37.5455 95.1549 36.8701V35.063C95.1549 34.3887 94.6005 33.7771 93.9295 33.843C93.9295 33.843 79.6203 35.2471 79.1584 35.2994C78.6252 35.3582 78.3251 35.7836 78.3251 36.2253ZM66.341 59.5264C62.6582 59.5264 60.3402 56.7341 60.3402 53.6247L60.3369 44.6459H59.2825C59.149 44.6461 59.0168 44.62 58.8934 44.569C58.77 44.518 58.6578 44.4433 58.5634 44.3489C58.4689 44.2546 58.394 44.1425 58.3429 44.0192C58.2919 43.8958 58.2656 43.7636 58.2657 43.6301V42.1269C58.2657 41.5654 58.7232 41.1144 59.2836 41.1144L60.3369 41.1155L60.3347 35.5946C60.3344 35.4088 60.3707 35.2249 60.4415 35.0532C60.5124 34.8815 60.6164 34.7254 60.7476 34.594C60.8788 34.4626 61.0347 34.3583 61.2063 34.2872C61.3779 34.2161 61.5618 34.1795 61.7475 34.1796H63.84C64.2154 34.1808 64.575 34.3308 64.8398 34.5968C65.1047 34.8628 65.2532 35.223 65.2528 35.5984L65.2539 41.115H68.5163C69.0789 41.115 69.5364 41.567 69.5364 42.1286V43.6318C69.5363 43.7651 69.5099 43.8971 69.4587 44.0203C69.4076 44.1435 69.3326 44.2553 69.2382 44.3494C69.1437 44.4436 69.0316 44.5182 68.9083 44.569C68.785 44.6197 68.6529 44.6457 68.5195 44.6453H65.2539L65.2561 52.951C65.2561 54.5817 66.244 55.6943 68.0114 55.6943L68.3082 55.6922C68.9176 55.6922 69.4133 56.1834 69.4133 56.7929V58.4246C69.4133 58.5694 69.3848 58.7129 69.3293 58.8467C69.2738 58.9805 69.1925 59.102 69.0899 59.2042C68.9873 59.3065 68.8656 59.3875 68.7316 59.4426C68.5976 59.4977 68.4541 59.5258 68.3093 59.5253H66.341V59.5264ZM41.126 50.0356C41.126 45.2488 38.2922 40.4685 31.853 40.4685C25.8996 40.4685 22.5604 45.1279 22.5604 50.0367C22.5604 55.2679 26.1371 59.875 31.8917 59.875C35.8305 59.875 39.7132 57.7994 40.4468 54.3905C40.5459 53.9308 40.236 53.3279 39.5879 53.3257H36.7738C36.2629 53.3257 35.8452 53.5703 35.5936 53.9395C34.7886 55.1203 33.6084 55.7488 31.8639 55.7488C29.3989 55.7488 27.6898 53.8066 27.5613 51.6526H39.5307C40.6331 51.6526 41.126 51.0546 41.126 50.0356ZM27.5983 47.9899C27.7906 45.874 29.6549 44.3104 31.853 44.3104C34.0506 44.3104 35.9476 45.874 36.1398 47.9899H27.5983ZM95.6674 50.0356C95.6674 45.2488 92.8337 40.4685 86.3939 40.4685C80.4411 40.4685 77.1019 45.1279 77.1019 50.0367C77.1019 55.2679 80.6791 59.875 86.4331 59.875C90.3719 59.875 94.2546 57.7994 94.9888 54.3905C95.0879 53.9308 94.778 53.3279 94.1305 53.3257H91.3158C90.8049 53.3257 90.3872 53.5703 90.135 53.9395C89.3306 55.1203 88.1498 55.7488 86.4054 55.7488C83.9409 55.7488 82.2324 53.8066 82.1027 51.6526H94.0733C95.1745 51.6526 95.6674 51.0546 95.6674 50.0356ZM82.1398 47.9899C82.3315 45.874 84.1958 44.3104 86.3939 44.3104C88.5926 44.3104 90.4896 45.874 90.6818 47.9899H82.1398Z" fill="#63513D"/>
<path fill-rule="evenodd" clip-rule="evenodd" d="M56.311 34.4296H17.54C17.3306 34.4296 17.1232 34.4709 16.9297 34.5511C16.7363 34.6314 16.5605 34.7489 16.4126 34.8972C16.2646 35.0454 16.1473 35.2213 16.0674 35.4149C15.9875 35.6085 15.9466 35.816 15.9469 36.0254L16.0804 51.2529C16.0804 51.2529 7.72566 36.1626 7.28995 35.3925C6.88093 34.6682 6.00134 34.001 4.78408 34.001H1.59578C1.38613 34.001 1.17853 34.0423 0.984851 34.1226C0.791171 34.2028 0.615205 34.3205 0.467009 34.4688C0.318812 34.6171 0.201291 34.7931 0.121159 34.9868C0.0410276 35.1806 -0.000142736 35.3882 3.71801e-07 35.5978L0.00163416 57.929C0.00149107 58.1386 0.0426256 58.3461 0.122689 58.5398C0.202752 58.7334 0.320177 58.9094 0.468258 59.0577C0.616339 59.206 0.792176 59.3237 0.985731 59.404C1.17929 59.4843 1.38677 59.5257 1.59633 59.5259H3.64143C4.065 59.5249 4.47083 59.3557 4.76967 59.0555C5.06851 58.7553 5.23591 58.3488 5.23504 57.9252L5.1065 42.2713C5.1065 42.2713 13.5418 57.5124 13.9029 58.1125C14.3893 58.924 15.2128 59.5264 16.4066 59.5264H19.3357C19.5452 59.5263 19.7526 59.4849 19.9462 59.4045C20.1397 59.3242 20.3155 59.2065 20.4635 59.0582C20.6116 58.9099 20.7289 58.7339 20.8089 58.5403C20.8889 58.3466 20.93 58.1391 20.9298 57.9295L20.9287 38.2143L56.3131 38.2154C56.4562 38.2158 56.598 38.188 56.7303 38.1336C56.8627 38.0792 56.983 37.9992 57.0843 37.8982C57.1857 37.7972 57.2662 37.6772 57.3211 37.5451C57.3761 37.413 57.4044 37.2714 57.4046 37.1283V35.5178C57.4037 35.2285 57.2881 34.9514 57.083 34.7474C56.8779 34.5433 56.6003 34.429 56.311 34.4296Z" fill="#63513D"/>
<path fill-rule="evenodd" clip-rule="evenodd" d="M50.0362 44.1246C51.7224 44.1246 52.9827 44.7363 53.4369 45.7923C53.6548 46.2999 54.0774 46.3974 54.658 46.3974H56.976C57.3589 46.3974 57.7995 46.0679 57.7995 45.5668C57.7995 42.8725 54.5861 40.4663 50.033 40.4663C45.3257 40.4663 42.2338 42.7086 42.2338 46.2819C42.2338 49.0149 44.3938 50.6412 47.0489 51.3356C48.2591 51.6515 50.3254 52.1624 51.3314 52.427C52.4163 52.7108 53.3863 53.043 53.3863 53.9716C53.3863 55.4383 51.8406 55.9372 50.1522 55.9372C48.5526 55.9372 46.9596 55.2232 46.5026 54.0822C46.2385 53.4216 45.775 53.3257 45.0724 53.3257H42.7147C42.3035 53.3257 41.8302 53.6786 41.8302 54.2151V54.5195C41.8302 57.1278 45.3295 59.8597 50.1566 59.8597C53.5796 59.8597 58.3485 58.4366 58.3485 53.8464C58.3485 51.188 56.5697 49.3477 53.6755 48.6119C52.5437 48.3249 49.8227 47.6332 49.2307 47.4801C48.1758 47.2067 47.191 46.8631 47.191 45.959C47.1916 44.5892 48.4573 44.1246 50.0362 44.1246ZM97.3302 58.5831H96.8046V56.1257H97.7229C98.3568 56.1257 98.7316 56.3065 98.7316 56.868C98.7316 57.3201 98.4658 57.484 98.1401 57.5085L98.7675 58.5831H98.145L97.578 57.5504H97.3302V58.5831ZM97.7948 57.1343C98.0312 57.1343 98.1695 57.0853 98.1695 56.813C98.1695 56.5597 97.8972 56.5418 97.6995 56.5418H97.3302V57.1343H97.7948ZM97.7098 59.6391C96.4969 59.6391 95.4153 58.7998 95.4153 57.3565C95.4153 55.9143 96.4969 55.0751 97.7098 55.0751C98.9184 55.0751 100 55.9143 100 57.3565C100 58.7998 98.9184 59.6391 97.7098 59.6391ZM97.7098 55.6055C96.8046 55.6055 96.0737 56.3065 96.0737 57.3565C96.0737 58.4077 96.8046 59.1152 97.7098 59.1086V59.1152C98.5927 59.1152 99.3405 58.4077 99.3405 57.3565C99.3405 56.3065 98.5927 55.6055 97.7098 55.6055Z" fill="#63513D"/>
</svg>
