<svg width="380" height="302" viewBox="0 0 380 302" fill="none" xmlns="http://www.w3.org/2000/svg">
<circle cx="163.515" cy="297.091" r="4.60606" fill="#2ED573"/>
<circle cx="216.485" cy="297.091" r="4.60606" fill="#2ED573"/>
<circle cx="269.455" cy="297.091" r="4.60606" fill="#2ED573"/>
<circle cx="322.424" cy="297.091" r="4.60606" fill="#2ED573"/>
<circle cx="375.394" cy="297.091" r="4.60606" fill="#2ED573"/>
<circle cx="110.545" cy="297.091" r="4.60606" fill="#2ED573"/>
<circle cx="57.5758" cy="297.091" r="4.60606" fill="#2ED573"/>
<circle cx="4.60606" cy="297.091" r="4.60606" fill="#2ED573"/>
<circle cx="163.515" cy="4.60606" r="4.60606" fill="#2ED573"/>
<circle cx="216.485" cy="4.60606" r="4.60606" fill="#2ED573"/>
<circle cx="269.455" cy="4.60606" r="4.60606" fill="#2ED573"/>
<circle cx="322.424" cy="4.60606" r="4.60606" fill="#2ED573"/>
<circle cx="375.394" cy="4.60606" r="4.60606" fill="#2ED573"/>
<circle cx="110.545" cy="4.60606" r="4.60606" fill="#2ED573"/>
<circle cx="57.5758" cy="4.60606" r="4.60606" fill="#2ED573"/>
<circle cx="4.60606" cy="4.60606" r="4.60606" fill="#2ED573"/>
<circle cx="163.515" cy="41.4546" r="4.60606" fill="#2ED573"/>
<circle cx="216.485" cy="41.4546" r="4.60606" fill="#2ED573"/>
<circle cx="269.455" cy="41.4546" r="4.60606" fill="#2ED573"/>
<circle cx="322.424" cy="41.4546" r="4.60606" fill="#2ED573"/>
<circle cx="375.394" cy="41.4546" r="4.60606" fill="#2ED573"/>
<circle cx="110.545" cy="41.4546" r="4.60606" fill="#2ED573"/>
<circle cx="57.5758" cy="41.4546" r="4.60606" fill="#2ED573"/>
<circle cx="4.60606" cy="41.4546" r="4.60606" fill="#2ED573"/>
<circle cx="163.515" cy="78.303" r="4.60606" fill="#2ED573"/>
<circle cx="216.485" cy="78.303" r="4.60606" fill="#2ED573"/>
<circle cx="269.455" cy="78.303" r="4.60606" fill="#2ED573"/>
<circle cx="322.424" cy="78.303" r="4.60606" fill="#2ED573"/>
<circle cx="375.394" cy="78.303" r="4.60606" fill="#2ED573"/>
<circle cx="110.545" cy="78.303" r="4.60606" fill="#2ED573"/>
<circle cx="57.5758" cy="78.303" r="4.60606" fill="#2ED573"/>
<circle cx="4.60606" cy="78.303" r="4.60606" fill="#2ED573"/>
<circle cx="163.515" cy="115.152" r="4.60606" fill="#2ED573"/>
<circle cx="216.485" cy="115.152" r="4.60606" fill="#2ED573"/>
<circle cx="269.455" cy="115.152" r="4.60606" fill="#2ED573"/>
<circle cx="322.424" cy="115.152" r="4.60606" fill="#2ED573"/>
<circle cx="375.394" cy="115.152" r="4.60606" fill="#2ED573"/>
<circle cx="110.545" cy="115.152" r="4.60606" fill="#2ED573"/>
<circle cx="57.5758" cy="115.152" r="4.60606" fill="#2ED573"/>
<circle cx="4.60606" cy="115.152" r="4.60606" fill="#2ED573"/>
<circle cx="163.515" cy="152" r="4.60606" fill="#2ED573"/>
<circle cx="216.485" cy="152" r="4.60606" fill="#2ED573"/>
<circle cx="269.455" cy="152" r="4.60606" fill="#2ED573"/>
<circle cx="322.424" cy="152" r="4.60606" fill="#2ED573"/>
<circle cx="375.394" cy="152" r="4.60606" fill="#2ED573"/>
<circle cx="110.545" cy="152" r="4.60606" fill="#2ED573"/>
<circle cx="57.5758" cy="152" r="4.60606" fill="#2ED573"/>
<circle cx="4.60606" cy="152" r="4.60606" fill="#2ED573"/>
<circle cx="163.515" cy="188.848" r="4.60606" fill="#2ED573"/>
<circle cx="216.485" cy="188.848" r="4.60606" fill="#2ED573"/>
<circle cx="269.455" cy="188.848" r="4.60606" fill="#2ED573"/>
<circle cx="322.424" cy="188.848" r="4.60606" fill="#2ED573"/>
<circle cx="375.394" cy="188.848" r="4.60606" fill="#2ED573"/>
<circle cx="110.545" cy="188.848" r="4.60606" fill="#2ED573"/>
<circle cx="57.5758" cy="188.848" r="4.60606" fill="#2ED573"/>
<circle cx="4.60606" cy="188.848" r="4.60606" fill="#2ED573"/>
<circle cx="163.515" cy="225.697" r="4.60606" fill="#2ED573"/>
<circle cx="216.485" cy="225.697" r="4.60606" fill="#2ED573"/>
<circle cx="269.455" cy="225.697" r="4.60606" fill="#2ED573"/>
<circle cx="322.424" cy="225.697" r="4.60606" fill="#2ED573"/>
<circle cx="375.394" cy="225.697" r="4.60606" fill="#2ED573"/>
<circle cx="110.545" cy="225.697" r="4.60606" fill="#2ED573"/>
<circle cx="57.5758" cy="225.697" r="4.60606" fill="#2ED573"/>
<circle cx="4.60606" cy="225.697" r="4.60606" fill="#2ED573"/>
<circle cx="163.515" cy="262.546" r="4.60606" fill="#2ED573"/>
<circle cx="216.485" cy="262.546" r="4.60606" fill="#2ED573"/>
<circle cx="269.455" cy="262.546" r="4.60606" fill="#2ED573"/>
<circle cx="322.424" cy="262.546" r="4.60606" fill="#2ED573"/>
<circle cx="375.394" cy="262.546" r="4.60606" fill="#2ED573"/>
<circle cx="110.545" cy="262.546" r="4.60606" fill="#2ED573"/>
<circle cx="57.5758" cy="262.546" r="4.60606" fill="#2ED573"/>
<circle cx="4.60606" cy="262.546" r="4.60606" fill="#2ED573"/>
</svg>
