<svg width="100" height="35" viewBox="0 0 100 35" fill="none" xmlns="http://www.w3.org/2000/svg">
<g clip-path="url(#clip0)">
<path d="M0.0171204 0H99.9829V34.44H0.0171204V0Z" fill="#EE2C29"/>
<path d="M67.352 10.6255H71.0916V11.3494C73.342 10.4308 75.5284 9.99089 77.3002 11.984C78.3094 11.5574 79.228 11.0001 80.2238 10.7681C83.1222 10.0815 85.1393 11.8347 84.778 14.7903C84.4167 17.746 83.8447 20.6897 83.3675 23.652H79.5772C79.7839 22.3321 79.9772 21.0523 80.1985 19.7711C80.4305 18.3486 80.6771 16.9248 80.9104 15.5049C80.9085 15.4829 80.9127 15.4608 80.9224 15.4409C81.0651 14.3664 80.7024 13.5518 79.9785 13.3452C79.1893 13.1252 78.2067 13.5651 77.8574 14.5344C77.5081 15.5036 77.3775 16.5341 77.1908 17.5487C76.8669 19.4511 76.5829 21.3776 76.2456 23.2814C76.2128 23.3757 76.1583 23.461 76.0866 23.5305C76.0148 23.5999 75.9277 23.6516 75.8323 23.6813C74.7191 23.72 73.5939 23.6933 72.4034 23.6933C72.6367 22.2188 72.87 20.783 73.102 19.3471C73.322 17.9633 73.5686 16.5915 73.7686 15.2143C73.8846 14.4637 73.5486 13.7265 72.9793 13.4425C72.4101 13.1585 71.6728 13.3385 71.1036 13.8944C70.3796 14.6064 70.341 15.5502 70.185 16.4555C69.785 18.8552 69.4091 21.2549 69.0078 23.6746H65.2309C65.9428 19.3058 66.6414 14.9983 67.352 10.6255ZM33.2533 22.3455C32.8533 24.8292 32.464 27.1969 32.0627 29.6033H28.2725C29.3071 23.264 30.3296 16.9648 31.3642 10.6388H35.1544C35.1157 10.9614 35.0637 11.2587 35.0384 11.5174C35.8143 11.2201 36.5649 10.8068 37.3661 10.6388C40.0832 10.0562 42.3336 11.4787 43.0988 14.1571C44.1973 17.998 41.479 22.5908 37.5608 23.464C35.9823 23.7946 34.5598 23.4707 33.2533 22.3455ZM39.2806 16.7568C39.2939 15.2903 38.738 14.3251 37.8141 13.9758C36.8902 13.6265 35.8223 14.0144 35.0331 14.9716C34.6654 15.407 34.3898 15.9125 34.223 16.4574C34.0562 17.0023 34.0016 17.5753 34.0625 18.1419C34.1532 19.0992 34.5545 19.9004 35.529 20.2364C36.4622 20.5603 37.2621 20.211 37.9487 19.5778C38.7453 18.8484 39.2236 17.8353 39.2806 16.7568ZM3.00745 20.4563C3.87401 19.7324 4.71525 19.0338 5.55648 18.3233C5.93111 18.7512 6.25507 19.1898 6.64303 19.5525C7.57625 20.4457 8.67346 20.4577 9.84265 20.0577C10.9679 19.6698 11.6918 18.9192 11.8984 17.7153C12.0317 16.9008 11.7958 16.2155 11.0838 15.7622C10.5799 15.4396 10.036 15.1796 9.50536 14.8957C9.18273 14.7277 8.84677 14.5717 8.52281 14.417C3.96467 12.1906 4.71525 7.19922 8.00153 4.89415C10.1879 3.36766 12.4517 3.56097 14.7288 4.64885C15.2194 4.88215 15.6726 5.20478 16.1953 5.51541C15.458 6.43397 14.7727 7.28721 14.0995 8.11511C13.4916 7.84847 12.9223 7.53385 12.3144 7.35253C10.8785 6.91258 9.58535 7.50718 8.92543 8.85369C8.48548 9.75892 8.67879 10.5735 9.54536 11.0788C10.4119 11.584 11.3052 11.9707 12.1717 12.4359C13.7889 13.3038 14.9714 14.5317 15.2247 16.4355C15.6247 19.3591 14.1582 21.8935 11.4478 23.1014C8.23351 24.5065 4.94989 23.5093 3.00745 20.4563ZM18.1177 10.6255H21.9213C21.468 13.3932 21.0414 16.1368 20.5881 18.8659C20.4068 19.9657 20.7214 20.3924 21.8173 20.483C23.1878 20.599 23.817 20.0831 24.029 18.7499C24.4556 16.0582 24.9089 13.3678 25.3622 10.6255H29.1524C28.8938 12.268 28.6351 13.8851 28.3632 15.5156C28.1819 16.6408 27.9872 17.766 27.7939 18.8912C27.3673 21.4136 25.6848 23.1094 23.1758 23.5227C21.7519 23.756 20.3428 23.768 18.9709 23.256C17.3018 22.6228 16.4232 21.0576 16.7205 19.2845C17.1858 16.4341 17.6391 13.5625 18.1177 10.6255ZM64.8949 17.702H56.7626C56.6599 19.0472 57.3065 20.3924 58.277 20.703C59.8942 21.2363 60.7341 20.147 61.5233 18.9818C62.4166 19.3191 63.2965 19.6484 64.175 19.9777C63.0885 22.2815 59.8422 24.5705 56.6079 23.4973C54.3308 22.7467 53.2443 20.975 53.0243 18.6712C52.6777 15.1143 55.3214 11.5054 58.7757 10.7295C61.7766 10.0629 64.4163 11.796 64.8683 14.8623C64.9976 15.7609 64.8949 16.7181 64.8949 17.702ZM57.1065 15.3729H61.79C61.402 13.9064 60.6381 13.1345 59.6569 13.1225C58.5823 13.1092 57.5345 14.0278 57.1065 15.3729ZM94.1955 18.9818C95.0874 19.3191 95.954 19.6484 96.8219 19.9657C95.2821 23.1214 90.7546 25.1145 87.6883 22.6428C85.9285 21.2203 85.3992 19.2791 85.7485 17.1327C86.2271 14.0917 87.9083 11.8933 90.8706 10.8841C94.2729 9.72026 97.4032 11.88 97.6232 15.4769C97.6751 16.2008 97.6365 16.9248 97.6365 17.702H89.4214C89.2801 18.9699 89.9654 20.3017 90.9226 20.703C91.9571 21.1549 92.8504 20.703 94.1955 18.9818ZM94.3769 15.4116C94.3115 14.2117 93.3676 13.1452 92.3451 13.1092C91.2332 13.0705 89.9267 14.2477 89.8121 15.4116H94.3769ZM53.5109 10.6122C53.175 11.7507 52.8643 12.7986 52.5404 13.8984C52.4014 13.8797 52.2635 13.8539 52.1271 13.8211C50.3286 13.2638 48.7768 14.1824 48.4395 16.0582C48.0262 18.3486 47.6769 20.6377 47.301 22.9281C47.2623 23.16 47.2103 23.3933 47.1677 23.652H43.3948C44.1067 19.2925 44.8053 14.9716 45.5159 10.6255H49.2674C49.2554 10.9228 49.2288 11.2081 49.2034 11.544C50.5099 10.5602 51.9458 10.4308 53.5109 10.6122Z" fill="white"/>
</g>
<defs>
<clipPath id="clip0">
<rect width="100" height="34.44" fill="white"/>
</clipPath>
</defs>
</svg>
