<svg width="100" height="100" viewBox="0 0 100 100" fill="none" xmlns="http://www.w3.org/2000/svg">
<circle cx="50" cy="50" r="50" fill="#2ED573"/>
<path fill-rule="evenodd" clip-rule="evenodd" d="M32.5 38.5C29.3244 38.5 26.75 41.0744 26.75 44.25C26.75 47.4256 29.3244 50 32.5 50C35.6756 50 38.25 47.4256 38.25 44.25C38.25 41.0744 35.6756 38.5 32.5 38.5ZM23.875 44.25C23.875 39.4865 27.7365 35.625 32.5 35.625C37.2635 35.625 41.125 39.4865 41.125 44.25C41.125 49.0135 37.2635 52.875 32.5 52.875C27.7365 52.875 23.875 49.0135 23.875 44.25Z" fill="white"/>
<path fill-rule="evenodd" clip-rule="evenodd" d="M44 31.3125C44 28.9308 45.9308 27 48.3125 27H74.1875C76.5692 27 78.5 28.9308 78.5 31.3125V48.5625C78.5 50.9442 76.5692 52.875 74.1875 52.875H48.3125C45.9308 52.875 44 50.9442 44 48.5625V31.3125ZM48.3125 29.875C47.5186 29.875 46.875 30.5186 46.875 31.3125V48.5625C46.875 49.3564 47.5186 50 48.3125 50H74.1875C74.9814 50 75.625 49.3564 75.625 48.5625V31.3125C75.625 30.5186 74.9814 29.875 74.1875 29.875H48.3125Z" fill="white"/>
<path fill-rule="evenodd" clip-rule="evenodd" d="M21 60.0625C21 57.6808 22.9308 55.75 25.3125 55.75H39.6875C42.0692 55.75 44 57.6808 44 60.0625V68.6875C44 71.0692 42.0692 73 39.6875 73H25.3125C22.9308 73 21 71.0692 21 68.6875V60.0625ZM25.3125 58.625C24.5186 58.625 23.875 59.2686 23.875 60.0625V68.6875C23.875 69.4814 24.5186 70.125 25.3125 70.125H39.6875C40.4814 70.125 41.125 69.4814 41.125 68.6875V60.0625C41.125 59.2686 40.4814 58.625 39.6875 58.625H25.3125Z" fill="white"/>
<path fill-rule="evenodd" clip-rule="evenodd" d="M41.1444 60.2987C41.0139 59.5156 41.5429 58.775 42.326 58.6445L59.576 55.7695C60.3591 55.639 61.0998 56.168 61.2303 56.9511C61.3608 57.7342 60.8318 58.4748 60.0487 58.6054L42.7987 61.4804C42.0156 61.6109 41.2749 61.0818 41.1444 60.2987Z" fill="white"/>
</svg>
