<svg width="100" height="100" viewBox="0 0 100 100" fill="none" xmlns="http://www.w3.org/2000/svg">
<circle cx="50" cy="50" r="50" fill="#2ED573"/>
<path fill-rule="evenodd" clip-rule="evenodd" d="M47.6559 27.1844L48.2507 27.5894C51.8579 30.0456 54.1313 32.6163 55.351 35.2168C56.5787 37.8342 56.7019 40.4045 56.1372 42.7668C55.0252 47.4176 51.2745 51.1921 48.2507 53.251L47.6052 53.6906L46.9582 53.2531C43.047 50.6085 40.5822 47.9265 39.2571 45.2678C37.9196 42.5844 37.7766 39.9888 38.4012 37.6264C39.6264 32.9928 43.7462 29.4213 47.0313 27.5418L47.6559 27.1844ZM47.5935 50.8934C50.221 48.9383 53.0445 45.8027 53.8983 42.2315C54.3512 40.337 54.2564 38.304 53.2669 36.1944C52.3301 34.1971 50.5593 32.0645 47.5543 29.9106C44.6582 31.7166 41.5553 34.7027 40.6267 38.2148C40.1411 40.0515 40.236 42.0716 41.3173 44.2409C42.3448 46.3025 44.2915 48.5528 47.5935 50.8934Z" fill="white"/>
<path fill-rule="evenodd" clip-rule="evenodd" d="M47.252 43.2292C47.8877 43.2292 48.403 43.7446 48.403 44.3802V66.8191C48.403 67.4548 47.8877 67.9701 47.252 67.9701C46.6163 67.9701 46.101 67.4548 46.101 66.8191V44.3802C46.101 43.7446 46.6163 43.2292 47.252 43.2292Z" fill="white"/>
<path fill-rule="evenodd" clip-rule="evenodd" d="M72.3906 41.0525L72.3127 42.1462C71.7927 49.4547 68.3862 54.0166 64.2898 56.6894C60.2478 59.3266 55.5969 60.0896 52.5154 59.9887L51.3243 59.9497L51.4047 58.7607C51.9379 50.8801 55.3232 46.166 59.4613 43.5603C63.5355 40.995 68.2127 40.5507 71.3019 40.9218L72.3906 41.0525ZM53.8135 57.6771C56.4592 57.5514 59.9644 56.7629 63.0319 54.7615C66.3384 52.6042 69.1923 49.0067 69.9075 43.1203C67.2744 43.0196 63.7593 43.5743 60.6879 45.5083C57.4241 47.5634 54.5471 51.245 53.8135 57.6771Z" fill="white"/>
<path fill-rule="evenodd" clip-rule="evenodd" d="M59.4662 52.3153C59.8815 52.7965 59.828 53.5233 59.3467 53.9386L48.0633 63.675C47.5821 64.0903 46.8553 64.0368 46.44 63.5556C46.0247 63.0743 46.0782 62.3475 46.5595 61.9322L57.8428 52.1958C58.3241 51.7805 59.0509 51.834 59.4662 52.3153Z" fill="white"/>
<path fill-rule="evenodd" clip-rule="evenodd" d="M55.3089 72.8156C55.3089 72.0121 55.1514 71.2385 54.8601 70.5136C53.6607 67.5294 50.1925 65.3723 46.1011 65.3723C42.0096 65.3723 38.5414 67.5294 37.342 70.5136C37.0507 71.2385 36.8932 72.0121 36.8932 72.8156H55.3089ZM39.9608 70.5136H52.2413C51.1716 68.9436 49.0274 67.6742 46.1011 67.6742C43.1747 67.6742 41.0305 68.9436 39.9608 70.5136Z" fill="white"/>
</svg>
