<svg width="100" height="100" viewBox="0 0 100 100" fill="none" xmlns="http://www.w3.org/2000/svg">
<circle cx="50" cy="50" r="50" fill="#2ED573"/>
<path fill-rule="evenodd" clip-rule="evenodd" d="M51.432 30.8124C47.7055 34.8207 42.4477 37.3372 36.6019 37.3372C35.8313 37.3372 35.07 37.2934 34.3204 37.2079V54.5631C34.3204 63.3836 41.4708 70.534 50.2913 70.534C59.1117 70.534 66.2621 63.3836 66.2621 54.5631V37.3372C60.4163 37.3372 55.1585 34.8207 51.432 30.8124ZM49.9589 29.0431C46.6267 32.7423 41.8755 35.0557 36.6019 35.0557C35.8293 35.0557 35.0678 35.006 34.3204 34.9096C33.5437 34.8094 32.7821 34.6587 32.0388 34.4609V54.5631C32.0388 64.6436 40.2107 72.8155 50.2913 72.8155C60.3718 72.8155 68.5437 64.6436 68.5437 54.5631V34.9096C67.7963 35.006 67.0348 35.0557 66.2621 35.0557C60.9885 35.0557 56.2373 32.7423 52.9052 29.0431C52.3773 28.4571 51.8851 27.8363 51.432 27.1844C50.979 27.8363 50.4867 28.4571 49.9589 29.0431Z" fill="white"/>
<path fill-rule="evenodd" clip-rule="evenodd" d="M60.1301 44.5462C60.6221 44.9397 60.7018 45.6576 60.3083 46.1496L50.3858 58.5526L42.6399 50.8067C42.1944 50.3612 42.1944 49.6389 42.6399 49.1934C43.0854 48.7479 43.8077 48.7479 44.2532 49.1934L50.1967 55.1368L58.5267 44.7243C58.9202 44.2324 59.6381 44.1526 60.1301 44.5462Z" fill="white"/>
</svg>
